<?xml version="1.0" encoding="UTF-8" standalone="no"?><svg xmlns="http://www.w3.org/2000/svg" xmlns:xlink="http://www.w3.org/1999/xlink" contentStyleType="text/css" height="1212px" preserveAspectRatio="none" style="width:862px;height:1212px;background:#EFEFFF;" version="1.1" viewBox="0 0 862 1212" width="862px" zoomAndPan="magnify"><defs/><g><rect fill="#EFEFFF" height="1212" style="stroke:none;stroke-width:1.0;" width="862" x="0" y="0"/><text fill="#000000" font-family="sans-serif" font-size="14" font-weight="bold" lengthAdjust="spacing" textLength="95" x="376.5" y="23.5352">[ARCH]: AS IS</text><!--cluster GeneralBalancer--><g id="cluster_GeneralBalancer"><rect fill="none" height="97" rx="2.5" ry="2.5" style="stroke:#181818;stroke-width:1.0;" width="130" x="179" y="44.4883"/><path d="M303,44.4883 L303,53.9766 L293,63.9766 L179,63.9766 " fill="none" style="stroke:#181818;stroke-width:1.0;"/><text fill="#000000" font-family="sans-serif" font-size="14" font-weight="bold" lengthAdjust="spacing" textLength="114" x="182" y="59.0234">GeneralBalancer</text></g><!--cluster AdminPanel--><g id="cluster_AdminPanel"><rect fill="none" height="343" rx="2.5" ry="2.5" style="stroke:#181818;stroke-width:1.0;" width="200" x="7" y="264.9883"/><path d="M103,264.9883 L103,274.4766 L93,284.4766 L7,284.4766 " fill="none" style="stroke:#181818;stroke-width:1.0;"/><text fill="#000000" font-family="sans-serif" font-size="14" font-weight="bold" lengthAdjust="spacing" textLength="86" x="10" y="279.5234">AdminPanel</text></g><!--cluster ETLService--><g id="cluster_ETLService"><rect fill="none" height="265" rx="2.5" ry="2.5" style="stroke:#181818;stroke-width:1.0;" width="96" x="282" y="941.9883"/><path d="M368,941.9883 L368,951.4766 L358,961.4766 L282,961.4766 " fill="none" style="stroke:#181818;stroke-width:1.0;"/><text fill="#000000" font-family="sans-serif" font-size="14" font-weight="bold" lengthAdjust="spacing" textLength="76" x="285" y="956.5234">ETLService</text></g><!--cluster ApiService--><g id="cluster_ApiService"><rect fill="none" height="236" rx="2.5" ry="2.5" style="stroke:#181818;stroke-width:1.0;" width="316" x="238" y="664.9883"/><path d="M322,664.9883 L322,674.4766 L312,684.4766 L238,684.4766 " fill="none" style="stroke:#181818;stroke-width:1.0;"/><text fill="#000000" font-family="sans-serif" font-size="14" font-weight="bold" lengthAdjust="spacing" textLength="74" x="241" y="679.5234">ApiService</text></g><!--cluster AuthService--><g id="cluster_AuthService"><rect fill="none" height="358.5" rx="2.5" ry="2.5" style="stroke:#181818;stroke-width:1.0;" width="412" x="314" y="257.4883"/><path d="M408,257.4883 L408,266.9766 L398,276.9766 L314,276.9766 " fill="none" style="stroke:#181818;stroke-width:1.0;"/><text fill="#000000" font-family="sans-serif" font-size="14" font-weight="bold" lengthAdjust="spacing" textLength="84" x="317" y="272.0234">AuthService</text></g><!--entity nginx_general_balancer--><g id="elem_nginx_general_balancer"><rect fill="#F1F1F1" height="46.4883" rx="2.5" ry="2.5" style="stroke:#181818;stroke-width:0.5;" width="81" x="203.5" y="79.4883"/><rect fill="#F1F1F1" height="10" style="stroke:#181818;stroke-width:0.5;" width="15" x="264.5" y="84.4883"/><rect fill="#F1F1F1" height="2" style="stroke:#181818;stroke-width:0.5;" width="4" x="262.5" y="86.4883"/><rect fill="#F1F1F1" height="2" style="stroke:#181818;stroke-width:0.5;" width="4" x="262.5" y="90.4883"/><text fill="#000000" font-family="sans-serif" font-size="14" lengthAdjust="spacing" textLength="41" x="218.5" y="113.0234">Nginx</text></g><!--entity nginx_admin_panel--><g id="elem_nginx_admin_panel"><rect fill="#F1F1F1" height="46.4883" rx="2.5" ry="2.5" style="stroke:#181818;stroke-width:0.5;" width="81" x="88.5" y="299.9883"/><rect fill="#F1F1F1" height="10" style="stroke:#181818;stroke-width:0.5;" width="15" x="149.5" y="304.9883"/><rect fill="#F1F1F1" height="2" style="stroke:#181818;stroke-width:0.5;" width="4" x="147.5" y="306.9883"/><rect fill="#F1F1F1" height="2" style="stroke:#181818;stroke-width:0.5;" width="4" x="147.5" y="310.9883"/><text fill="#000000" font-family="sans-serif" font-size="14" lengthAdjust="spacing" textLength="41" x="103.5" y="333.5234">Nginx</text></g><!--entity app_serv_admin_panel--><g id="elem_app_serv_admin_panel"><rect fill="#F1F1F1" height="46.4883" rx="2.5" ry="2.5" style="stroke:#181818;stroke-width:0.5;" width="167" x="23.5" y="422.9883"/><rect fill="#F1F1F1" height="10" style="stroke:#181818;stroke-width:0.5;" width="15" x="170.5" y="427.9883"/><rect fill="#F1F1F1" height="2" style="stroke:#181818;stroke-width:0.5;" width="4" x="168.5" y="429.9883"/><rect fill="#F1F1F1" height="2" style="stroke:#181818;stroke-width:0.5;" width="4" x="168.5" y="433.9883"/><text fill="#000000" font-family="sans-serif" font-size="14" lengthAdjust="spacing" textLength="127" x="38.5" y="456.5234">Application_server</text></g><!--entity django_admin_panel--><g id="elem_django_admin_panel"><rect fill="#F1F1F1" height="46.4883" rx="2.5" ry="2.5" style="stroke:#181818;stroke-width:0.5;" width="89" x="62.5" y="545.9883"/><rect fill="#F1F1F1" height="10" style="stroke:#181818;stroke-width:0.5;" width="15" x="131.5" y="550.9883"/><rect fill="#F1F1F1" height="2" style="stroke:#181818;stroke-width:0.5;" width="4" x="129.5" y="552.9883"/><rect fill="#F1F1F1" height="2" style="stroke:#181818;stroke-width:0.5;" width="4" x="129.5" y="556.9883"/><text fill="#000000" font-family="sans-serif" font-size="14" lengthAdjust="spacing" textLength="49" x="77.5" y="579.5234">Django</text></g><!--entity etl_service--><g id="elem_etl_service"><rect fill="#F1F1F1" height="46.4883" rx="2.5" ry="2.5" style="stroke:#181818;stroke-width:0.5;" width="64" x="298" y="976.9883"/><rect fill="#F1F1F1" height="10" style="stroke:#181818;stroke-width:0.5;" width="15" x="342" y="981.9883"/><rect fill="#F1F1F1" height="2" style="stroke:#181818;stroke-width:0.5;" width="4" x="340" y="983.9883"/><rect fill="#F1F1F1" height="2" style="stroke:#181818;stroke-width:0.5;" width="4" x="340" y="987.9883"/><text fill="#000000" font-family="sans-serif" font-size="14" lengthAdjust="spacing" textLength="24" x="313" y="1010.5234">ETL</text></g><!--entity redis_etl_service--><g id="elem_redis_etl_service"><path d="M304.5,1155.9883 C304.5,1145.9883 333,1145.9883 333,1145.9883 C333,1145.9883 361.5,1145.9883 361.5,1155.9883 L361.5,1181.4766 C361.5,1191.4766 333,1191.4766 333,1191.4766 C333,1191.4766 304.5,1191.4766 304.5,1181.4766 L304.5,1155.9883 " fill="#F1F1F1" style="stroke:#181818;stroke-width:0.5;"/><path d="M304.5,1155.9883 C304.5,1165.9883 333,1165.9883 333,1165.9883 C333,1165.9883 361.5,1165.9883 361.5,1155.9883 " fill="none" style="stroke:#181818;stroke-width:0.5;"/><text fill="#000000" font-family="sans-serif" font-size="14" lengthAdjust="spacing" textLength="37" x="314.5" y="1183.5234">Redis</text></g><!--entity nginx_api_service--><g id="elem_nginx_api_service"><rect fill="#F1F1F1" height="46.4883" rx="2.5" ry="2.5" style="stroke:#181818;stroke-width:0.5;" width="81" x="392.5" y="707.9883"/><rect fill="#F1F1F1" height="10" style="stroke:#181818;stroke-width:0.5;" width="15" x="453.5" y="712.9883"/><rect fill="#F1F1F1" height="2" style="stroke:#181818;stroke-width:0.5;" width="4" x="451.5" y="714.9883"/><rect fill="#F1F1F1" height="2" style="stroke:#181818;stroke-width:0.5;" width="4" x="451.5" y="718.9883"/><text fill="#000000" font-family="sans-serif" font-size="14" lengthAdjust="spacing" textLength="41" x="407.5" y="741.5234">Nginx</text></g><!--entity app_serv_api_service--><g id="elem_app_serv_api_service"><rect fill="#F1F1F1" height="46.4883" rx="2.5" ry="2.5" style="stroke:#181818;stroke-width:0.5;" width="167" x="354.5" y="830.9883"/><rect fill="#F1F1F1" height="10" style="stroke:#181818;stroke-width:0.5;" width="15" x="501.5" y="835.9883"/><rect fill="#F1F1F1" height="2" style="stroke:#181818;stroke-width:0.5;" width="4" x="499.5" y="837.9883"/><rect fill="#F1F1F1" height="2" style="stroke:#181818;stroke-width:0.5;" width="4" x="499.5" y="841.9883"/><text fill="#000000" font-family="sans-serif" font-size="14" lengthAdjust="spacing" textLength="127" x="369.5" y="864.5234">Application_server</text></g><!--entity fastapi_api_service--><g id="elem_fastapi_api_service"><rect fill="#F1F1F1" height="46.4883" rx="2.5" ry="2.5" style="stroke:#181818;stroke-width:0.5;" width="90" x="262" y="707.9883"/><rect fill="#F1F1F1" height="10" style="stroke:#181818;stroke-width:0.5;" width="15" x="332" y="712.9883"/><rect fill="#F1F1F1" height="2" style="stroke:#181818;stroke-width:0.5;" width="4" x="330" y="714.9883"/><rect fill="#F1F1F1" height="2" style="stroke:#181818;stroke-width:0.5;" width="4" x="330" y="718.9883"/><text fill="#000000" font-family="sans-serif" font-size="14" lengthAdjust="spacing" textLength="50" x="277" y="741.5234">FastAPI</text></g><!--entity redis_api_service--><g id="elem_redis_api_service"><path d="M262.5,841.4883 C262.5,831.4883 291,831.4883 291,831.4883 C291,831.4883 319.5,831.4883 319.5,841.4883 L319.5,866.9766 C319.5,876.9766 291,876.9766 291,876.9766 C291,876.9766 262.5,876.9766 262.5,866.9766 L262.5,841.4883 " fill="#F1F1F1" style="stroke:#181818;stroke-width:0.5;"/><path d="M262.5,841.4883 C262.5,851.4883 291,851.4883 291,851.4883 C291,851.4883 319.5,851.4883 319.5,841.4883 " fill="none" style="stroke:#181818;stroke-width:0.5;"/><text fill="#000000" font-family="sans-serif" font-size="14" lengthAdjust="spacing" textLength="37" x="272.5" y="869.0234">Redis</text></g><!--entity nginx_auth_service--><g id="elem_nginx_auth_service"><rect fill="#F1F1F1" height="46.4883" rx="2.5" ry="2.5" style="stroke:#181818;stroke-width:0.5;" width="81" x="338.5" y="422.9883"/><rect fill="#F1F1F1" height="10" style="stroke:#181818;stroke-width:0.5;" width="15" x="399.5" y="427.9883"/><rect fill="#F1F1F1" height="2" style="stroke:#181818;stroke-width:0.5;" width="4" x="397.5" y="429.9883"/><rect fill="#F1F1F1" height="2" style="stroke:#181818;stroke-width:0.5;" width="4" x="397.5" y="433.9883"/><text fill="#000000" font-family="sans-serif" font-size="14" lengthAdjust="spacing" textLength="41" x="353.5" y="456.5234">Nginx</text></g><!--entity app_serv_auth_service--><g id="elem_app_serv_auth_service"><rect fill="#F1F1F1" height="46.4883" rx="2.5" ry="2.5" style="stroke:#181818;stroke-width:0.5;" width="167" x="373.5" y="545.9883"/><rect fill="#F1F1F1" height="10" style="stroke:#181818;stroke-width:0.5;" width="15" x="520.5" y="550.9883"/><rect fill="#F1F1F1" height="2" style="stroke:#181818;stroke-width:0.5;" width="4" x="518.5" y="552.9883"/><rect fill="#F1F1F1" height="2" style="stroke:#181818;stroke-width:0.5;" width="4" x="518.5" y="556.9883"/><text fill="#000000" font-family="sans-serif" font-size="14" lengthAdjust="spacing" textLength="127" x="388.5" y="579.5234">Application_server</text></g><!--entity flask_auth_service--><g id="elem_flask_auth_service"><rect fill="#F1F1F1" height="46.4883" rx="2.5" ry="2.5" style="stroke:#181818;stroke-width:0.5;" width="75" x="454.5" y="422.9883"/><rect fill="#F1F1F1" height="10" style="stroke:#181818;stroke-width:0.5;" width="15" x="509.5" y="427.9883"/><rect fill="#F1F1F1" height="2" style="stroke:#181818;stroke-width:0.5;" width="4" x="507.5" y="429.9883"/><rect fill="#F1F1F1" height="2" style="stroke:#181818;stroke-width:0.5;" width="4" x="507.5" y="433.9883"/><text fill="#000000" font-family="sans-serif" font-size="14" lengthAdjust="spacing" textLength="35" x="469.5" y="456.5234">Flask</text></g><!--entity posgresql_auth_service--><g id="elem_posgresql_auth_service"><path d="M558,310.4883 C558,300.4883 607,300.4883 607,300.4883 C607,300.4883 656,300.4883 656,310.4883 L656,335.9766 C656,345.9766 607,345.9766 607,345.9766 C607,345.9766 558,345.9766 558,335.9766 L558,310.4883 " fill="#F1F1F1" style="stroke:#181818;stroke-width:0.5;"/><path d="M558,310.4883 C558,320.4883 607,320.4883 607,320.4883 C607,320.4883 656,320.4883 656,310.4883 " fill="none" style="stroke:#181818;stroke-width:0.5;"/><text fill="#000000" font-family="sans-serif" font-size="14" lengthAdjust="spacing" textLength="78" x="568" y="338.0234">PostgreSQL</text></g><!--entity redis_auth_service--><g id="elem_redis_auth_service"><path d="M368.5,310.4883 C368.5,300.4883 397,300.4883 397,300.4883 C397,300.4883 425.5,300.4883 425.5,310.4883 L425.5,335.9766 C425.5,345.9766 397,345.9766 397,345.9766 C397,345.9766 368.5,345.9766 368.5,335.9766 L368.5,310.4883 " fill="#F1F1F1" style="stroke:#181818;stroke-width:0.5;"/><path d="M368.5,310.4883 C368.5,320.4883 397,320.4883 397,320.4883 C397,320.4883 425.5,320.4883 425.5,310.4883 " fill="none" style="stroke:#181818;stroke-width:0.5;"/><text fill="#000000" font-family="sans-serif" font-size="14" lengthAdjust="spacing" textLength="37" x="378.5" y="338.0234">Redis</text></g><!--entity User--><g id="elem_User"><ellipse cx="341" cy="72.9883" fill="#F1F1F1" rx="8" ry="8" style="stroke:#181818;stroke-width:0.5;"/><path d="M341,80.9883 L341,107.9883 M328,88.9883 L354,88.9883 M341,107.9883 L328,122.9883 M341,107.9883 L354,122.9883 " fill="none" style="stroke:#181818;stroke-width:0.5;"/><text fill="#000000" font-family="sans-serif" font-size="14" lengthAdjust="spacing" textLength="31" x="325.5" y="138.0234">User</text></g><!--entity Admin--><g id="elem_Admin"><ellipse cx="140" cy="72.9883" fill="#F1F1F1" rx="8" ry="8" style="stroke:#181818;stroke-width:0.5;"/><path d="M140,80.9883 L140,107.9883 M127,88.9883 L153,88.9883 M140,107.9883 L127,122.9883 M140,107.9883 L153,122.9883 " fill="none" style="stroke:#181818;stroke-width:0.5;"/><text fill="#000000" font-family="sans-serif" font-size="14" lengthAdjust="spacing" textLength="45" x="117.5" y="138.0234">Admin</text></g><!--entity PostgreSQL--><g id="elem_PostgreSQL"><path d="M58,987.4883 C58,977.4883 107,977.4883 107,977.4883 C107,977.4883 156,977.4883 156,987.4883 L156,1012.9766 C156,1022.9766 107,1022.9766 107,1022.9766 C107,1022.9766 58,1022.9766 58,1012.9766 L58,987.4883 " fill="#F1F1F1" style="stroke:#181818;stroke-width:0.5;"/><path d="M58,987.4883 C58,997.4883 107,997.4883 107,997.4883 C107,997.4883 156,997.4883 156,987.4883 " fill="none" style="stroke:#181818;stroke-width:0.5;"/><text fill="#000000" font-family="sans-serif" font-size="14" lengthAdjust="spacing" textLength="78" x="68" y="1015.0234">PostgreSQL</text></g><!--entity elasticsearch_data_service--><g id="elem_elasticsearch_data_service"><path d="M157,1155.9883 C157,1145.9883 211,1145.9883 211,1145.9883 C211,1145.9883 265,1145.9883 265,1155.9883 L265,1181.4766 C265,1191.4766 211,1191.4766 211,1191.4766 C211,1191.4766 157,1191.4766 157,1181.4766 L157,1155.9883 " fill="#F1F1F1" style="stroke:#181818;stroke-width:0.5;"/><path d="M157,1155.9883 C157,1165.9883 211,1165.9883 211,1165.9883 C211,1165.9883 265,1165.9883 265,1155.9883 " fill="none" style="stroke:#181818;stroke-width:0.5;"/><text fill="#000000" font-family="sans-serif" font-size="14" lengthAdjust="spacing" textLength="88" x="167" y="1183.5234">Elasticsearch</text></g><!--link Admin to nginx_general_balancer--><g id="link_Admin_nginx_general_balancer"><path d="M162.75,102.4883 C174.09,102.4883 185.42,102.4883 196.76,102.4883 " fill="none" id="Admin-to-nginx_general_balancer" style="stroke:#181818;stroke-width:1.0;"/><polygon fill="#181818" points="201.54,102.4883,192.54,98.4883,196.54,102.4883,192.54,106.4883,201.54,102.4883" style="stroke:#181818;stroke-width:1.0;"/></g><!--reverse link nginx_general_balancer to User--><g id="link_nginx_general_balancer_User"><path d="M291.22,102.4883 C302.56,102.4883 313.89,102.4883 325.23,102.4883 " fill="none" id="nginx_general_balancer-backto-User" style="stroke:#181818;stroke-width:1.0;"/><polygon fill="#181818" points="286.44,102.4883,295.44,106.4883,291.44,102.4883,295.44,98.4883,286.44,102.4883" style="stroke:#181818;stroke-width:1.0;"/></g><!--link nginx_general_balancer to nginx_admin_panel--><g id="link_nginx_general_balancer_nginx_admin_panel"><path d="M232.34,125.6383 C211.25,165.7183 166.79,250.1783 143.67,294.1083 " fill="none" id="nginx_general_balancer-to-nginx_admin_panel" style="stroke:#181818;stroke-width:1.0;"/><polygon fill="#181818" points="141.4,298.4383,149.1371,292.3442,143.7329,294.0159,142.0612,288.6116,141.4,298.4383" style="stroke:#181818;stroke-width:1.0;"/></g><!--link nginx_admin_panel to app_serv_admin_panel--><g id="link_nginx_admin_panel_app_serv_admin_panel"><path d="M124.91,346.4683 C121.33,366.1583 116.11,394.8983 112.22,416.2583 " fill="none" id="nginx_admin_panel-to-app_serv_admin_panel" style="stroke:#181818;stroke-width:1.0;"/><polygon fill="#181818" points="111.34,421.1483,116.8959,413.0161,112.2407,416.2301,109.0267,411.5749,111.34,421.1483" style="stroke:#181818;stroke-width:1.0;"/></g><!--reverse link app_serv_admin_panel to django_admin_panel--><g id="link_app_serv_admin_panel_django_admin_panel"><path d="M107,475.8483 C107,497.2383 107,525.9783 107,545.6283 " fill="none" id="app_serv_admin_panel-backto-django_admin_panel" style="stroke:#181818;stroke-width:1.0;"/><polygon fill="#181818" points="107,470.9783,103,479.9783,107,475.9783,111,479.9783,107,470.9783" style="stroke:#181818;stroke-width:1.0;"/></g><!--reverse link django_admin_panel to PostgreSQL--><g id="link_django_admin_panel_PostgreSQL"><path d="M107,598.8983 C107,679.4983 107,905.4983 107,977.0083 " fill="none" id="django_admin_panel-backto-PostgreSQL" style="stroke:#181818;stroke-width:1.0;"/><polygon fill="#181818" points="107,593.9583,103,602.9583,107,598.9583,111,602.9583,107,593.9583" style="stroke:#181818;stroke-width:1.0;"/></g><!--link PostgreSQL to etl_service--><g id="link_PostgreSQL_etl_service"><path d="M162.57,999.9883 C205.52,999.9883 248.47,999.9883 291.42,999.9883 " fill="none" id="PostgreSQL-etl_service" style="stroke:#181818;stroke-width:1.0;"/><polygon fill="#181818" points="157.73,999.9883,166.73,1003.9883,162.73,999.9883,166.73,995.9883,157.73,999.9883" style="stroke:#181818;stroke-width:1.0;"/><polygon fill="#181818" points="296.24,999.9883,287.24,995.9883,291.24,999.9883,287.24,1003.9883,296.24,999.9883" style="stroke:#181818;stroke-width:1.0;"/></g><!--link etl_service to elasticsearch_data_service--><g id="link_etl_service_elasticsearch_data_service"><path d="M310.32,1028.5183 C288.14,1059.5583 252.3,1109.6983 230.28,1140.5083 " fill="none" id="etl_service-elasticsearch_data_service" style="stroke:#181818;stroke-width:1.0;"/><polygon fill="#181818" points="313.07,1024.6783,304.5906,1029.6882,310.1692,1028.7508,311.1066,1034.3295,313.07,1024.6783" style="stroke:#181818;stroke-width:1.0;"/><polygon fill="#181818" points="227.49,1144.4183,235.9694,1139.4084,230.3908,1140.3458,229.4534,1134.7671,227.49,1144.4183" style="stroke:#181818;stroke-width:1.0;"/></g><!--link etl_service to redis_etl_service--><g id="link_etl_service_redis_etl_service"><path d="M330.52,1029.7483 C331.07,1060.5083 331.95,1108.9483 332.49,1139.4383 " fill="none" id="etl_service-redis_etl_service" style="stroke:#181818;stroke-width:1.0;stroke-dasharray:7.0,7.0;"/><polygon fill="#181818" points="330.43,1024.9583,326.5849,1034.0255,330.5157,1029.9575,334.5837,1033.8884,330.43,1024.9583" style="stroke:#181818;stroke-width:1.0;"/><polygon fill="#181818" points="332.58,1144.1383,336.4251,1135.071,332.4943,1139.139,328.4263,1135.2082,332.58,1144.1383" style="stroke:#181818;stroke-width:1.0;"/></g><!--link nginx_general_balancer to nginx_api_service--><g id="link_nginx_general_balancer_nginx_api_service"><path d="M244,125.6783 C244,145.5383 244,175.4583 244,201.4883 C244,201.4883 244,201.4883 244,569.9883 C244,614.2683 283.26,610.5283 322,631.9883 C341.8,642.9583 351.65,635.7483 370,648.9883 C389.51,663.0683 405.96,684.8283 417.16,702.2483 " fill="none" id="nginx_general_balancer-to-nginx_api_service" style="stroke:#181818;stroke-width:1.0;"/><polygon fill="#181818" points="419.66,706.2283,418.2584,696.4797,416.9997,701.9947,411.4847,700.7361,419.66,706.2283" style="stroke:#181818;stroke-width:1.0;"/></g><!--link nginx_api_service to app_serv_api_service--><g id="link_nginx_api_service_app_serv_api_service"><path d="M433.93,754.4683 C434.74,774.1583 435.93,802.8983 436.81,824.2583 " fill="none" id="nginx_api_service-to-app_serv_api_service" style="stroke:#181818;stroke-width:1.0;"/><polygon fill="#181818" points="437.01,829.1183,440.621,819.9553,436.7959,824.1229,432.6283,820.2978,437.01,829.1183" style="stroke:#181818;stroke-width:1.0;"/></g><!--link fastapi_api_service to app_serv_api_service--><g id="link_fastapi_api_service_app_serv_api_service"><path d="M334.6,754.2683 C345.5,763.2883 358.02,773.9283 369,783.9883 C383.69,797.4383 399.43,813.0883 412.17,826.0783 " fill="none" id="fastapi_api_service-to-app_serv_api_service" style="stroke:#181818;stroke-width:1.0;"/><polygon fill="#181818" points="415.66,829.6583,412.2364,820.4236,412.1677,826.0801,406.5112,826.0114,415.66,829.6583" style="stroke:#181818;stroke-width:1.0;"/></g><!--reverse link fastapi_api_service to redis_api_service--><g id="link_fastapi_api_service_redis_api_service"><path d="M303.18,760.8883 C300.33,782.4283 296.5,811.3883 293.9,831.0383 " fill="none" id="fastapi_api_service-backto-redis_api_service" style="stroke:#181818;stroke-width:1.0;"/><polygon fill="#181818" points="303.83,755.9683,298.682,764.3646,303.1729,760.9249,306.6126,765.4159,303.83,755.9683" style="stroke:#181818;stroke-width:1.0;"/><text fill="#000000" font-family="sans-serif" font-size="13" lengthAdjust="spacing" textLength="60" x="300" y="797.5566">cash data</text></g><!--reverse link fastapi_api_service to elasticsearch_data_service--><g id="link_fastapi_api_service_elasticsearch_data_service"><path d="M267.69,758.4083 C240.43,780.1883 209,813.7983 209,852.9883 C209,852.9883 209,852.9883 209,1084.9883 C209,1105.6183 209.63,1129.1483 210.19,1145.7783 " fill="none" id="fastapi_api_service-backto-elasticsearch_data_service" style="stroke:#181818;stroke-width:1.0;"/><polygon fill="#181818" points="271.53,755.4083,261.9772,757.805,267.5925,758.4898,266.9077,764.1051,271.53,755.4083" style="stroke:#181818;stroke-width:1.0;"/></g><!--link nginx_general_balancer to nginx_auth_service--><g id="link_nginx_general_balancer_nginx_auth_service"><path d="M252.6,125.6283 C277.13,188.7483 346.33,366.7483 357,392.9883 C360.15,400.7283 363.64,409.0883 366.9,416.7783 " fill="none" id="nginx_general_balancer-to-nginx_auth_service" style="stroke:#181818;stroke-width:1.0;"/><polygon fill="#181818" points="368.74,421.1283,368.8972,411.2807,366.7825,416.5274,361.5358,414.4127,368.74,421.1283" style="stroke:#181818;stroke-width:1.0;"/></g><!--link nginx_auth_service to app_serv_auth_service--><g id="link_nginx_auth_service_app_serv_auth_service"><path d="M393.49,469.4683 C406.4,489.4983 425.35,518.8883 439.19,540.3583 " fill="none" id="nginx_auth_service-to-app_serv_auth_service" style="stroke:#181818;stroke-width:1.0;"/><polygon fill="#181818" points="441.77,544.3583,440.2445,534.6283,439.0561,540.1589,433.5255,538.9705,441.77,544.3583" style="stroke:#181818;stroke-width:1.0;"/></g><!--link flask_auth_service to app_serv_auth_service--><g id="link_flask_auth_service_app_serv_auth_service"><path d="M485.5,469.4683 C479.78,489.2483 471.42,518.1483 465.23,539.5383 " fill="none" id="flask_auth_service-to-app_serv_auth_service" style="stroke:#181818;stroke-width:1.0;"/><polygon fill="#181818" points="463.89,544.1783,470.2293,536.6409,465.2768,539.3745,462.5432,534.4219,463.89,544.1783" style="stroke:#181818;stroke-width:1.0;"/></g><!--link posgresql_auth_service to flask_auth_service--><g id="link_posgresql_auth_service_flask_auth_service"><path d="M597.82,345.8483 C591.02,360.3183 580.75,379.0983 568,392.9883 C558.53,403.3083 546.65,412.6483 535.11,420.4783 " fill="none" id="posgresql_auth_service-to-flask_auth_service" style="stroke:#181818;stroke-width:1.0;"/><polygon fill="#181818" points="531.1,423.1283,540.8138,421.5027,535.2712,420.3713,536.4026,414.8287,531.1,423.1283" style="stroke:#181818;stroke-width:1.0;"/><text fill="#000000" font-family="sans-serif" font-size="13" lengthAdjust="spacing" textLength="85" x="580" y="389.5566">storage users</text></g><!--link redis_auth_service to flask_auth_service--><g id="link_redis_auth_service_flask_auth_service"><path d="M378.19,345.9483 C368.46,360.1083 360.43,378.4983 370,392.9883 C371.2,394.8083 413.83,412.7383 448.36,427.0383 " fill="none" id="redis_auth_service-to-flask_auth_service" style="stroke:#181818;stroke-width:1.0;"/><polygon fill="#181818" points="452.87,428.9083,446.0898,421.7649,448.2517,426.9923,443.0242,429.1542,452.87,428.9083" style="stroke:#181818;stroke-width:1.0;"/><text fill="#000000" font-family="sans-serif" font-size="13" lengthAdjust="spacing" textLength="192" x="371" y="389.5566">storage refresh, invalid tokens</text></g><!--reverse link AuthService to ApiService--><g id="link_AuthService_ApiService"><path d="M726.0523,353.7405 C726.123,354.0353 726.194,354.332 726.2651,354.6305 C726.5497,355.8247 726.8376,357.0485 727.1281,358.3011 C731.7763,378.342 737.0925,405.7345 740.225,436.5833 C746.49,498.2808 744.02,573.8033 710,631.9883 C688.905,668.0683 648.8475,692.3733 613.6038,707.7533 C595.9819,715.4433 579.5634,720.902 567.3205,724.4858 C564.2597,725.3817 561.46,726.1605 558.9676,726.8276 C557.7214,727.1612 556.5521,727.4668 555.4654,727.7453 C555.1937,727.8149 554.9272,727.8828 554.666,727.949 C554.5353,727.9821 554.406,728.0148 554.278,728.0471 " fill="none" id="AuthService-backto-ApiService" style="stroke:#181818;stroke-width:1.0;"/><polygon fill="#181818" points="726.0523,353.7405,724.2621,363.4253,727.2187,358.6025,732.0414,361.5591,726.0523,353.7405" style="stroke:#181818;stroke-width:1.0;"/><text fill="#000000" font-family="sans-serif" font-size="13" lengthAdjust="spacing" textLength="111" x="743" y="512.5566">check permission</text></g><!--SRC=[dPNDRjim3CVlUWe-mBp3Za5HmElQBK3NPassop0OZAtOccLPavHYmv1t7wKsdkAlPlE9fd-aIO9_oTP2QJJOGDuskbLSkRNx9Jdi6_c6sUxh5lEwDErU5LUjR0rylDyilwIRvVqTOquu2lYQFbnz-BQ0T0tBDMEOEy8-MswUpRHeX6ACxIWTX_TSSOFoBKfKEJVmcm4zNGrmLmhr4z22yaPMFk7PzfbdXsEYa7Q5YikNSg0dC-tH7fXgBKMEJhGgeu8VgHwAGgt3sqpWk- -eojR3HR1EK2gH5UXmYvR3ghMkD7pzwVPO-FNcTatPHSu7XTCddvCx6GeW901TiWTU2Ei9uuqivWxHFwybMYTooz7aLKWOEpBFTN77QMenLLH_cbgS57V-D2S3RwYwTBNqz8vC3_RXgH74NBGRUrUTsmwX_zdFTEGDpRiExNXZI8viXwTrQ-d5_f0p4Vt-O_30WYWWIKnoEIKWhqn8v3J0nlsKjOk9jttW0S-DQcZC2HT9CYQYeSkJnCQ2OYmQu4NeEjP4P8VWopaXdCAl2HwAR6OqVsSJRUJ0qvjDX8ui_h_1Veu3JS02ShHLM9_9gBdJuPo6unKSkdfTnF1G7JFmk3X2m4YU1LYwUx2a-unSbWtLydAauJlwOVKAX7f4AGfmRSsLPV7fyhIJqUb90wzuNeFcfX7Mqjdn1m00]--></g></svg>