<?xml version="1.0" encoding="UTF-8" standalone="no"?><svg xmlns="http://www.w3.org/2000/svg" xmlns:xlink="http://www.w3.org/1999/xlink" contentStyleType="text/css" height="1469px" preserveAspectRatio="none" style="width:1443px;height:1469px;background:#EFEFFF;" version="1.1" viewBox="0 0 1443 1469" width="1443px" zoomAndPan="magnify"><defs/><g><rect fill="#EFEFFF" height="1469" style="stroke:none;stroke-width:1.0;" width="1443" x="0" y="0"/><text fill="#000000" font-family="sans-serif" font-size="14" font-weight="bold" lengthAdjust="spacing" textLength="103" x="663" y="23.5352">[ARCH]: TO BE</text><!--cluster GeneralBalancer--><g id="cluster_GeneralBalancer"><rect fill="none" height="97" rx="2.5" ry="2.5" style="stroke:#181818;stroke-width:1.0;" width="130" x="824" y="229.9883"/><path d="M948,229.9883 L948,239.4766 L938,249.4766 L824,249.4766 " fill="none" style="stroke:#181818;stroke-width:1.0;"/><text fill="#000000" font-family="sans-serif" font-size="14" font-weight="bold" lengthAdjust="spacing" textLength="114" x="827" y="244.5234">GeneralBalancer</text></g><!--cluster AdminPanel--><g id="cluster_AdminPanel"><rect fill="none" height="369" rx="2.5" ry="2.5" style="stroke:#181818;stroke-width:1.0;" width="200" x="875" y="495.4883"/><path d="M971,495.4883 L971,504.9766 L961,514.9766 L875,514.9766 " fill="none" style="stroke:#181818;stroke-width:1.0;"/><text fill="#000000" font-family="sans-serif" font-size="14" font-weight="bold" lengthAdjust="spacing" textLength="86" x="878" y="510.0234">AdminPanel</text></g><!--cluster ETLServiceMovie--><g id="cluster_ETLServiceMovie"><rect fill="none" height="265" rx="2.5" ry="2.5" style="stroke:#181818;stroke-width:1.0;" width="135" x="522" y="1198.4883"/><path d="M651,1198.4883 L651,1207.9766 L641,1217.9766 L522,1217.9766 " fill="none" style="stroke:#181818;stroke-width:1.0;"/><text fill="#000000" font-family="sans-serif" font-size="14" font-weight="bold" lengthAdjust="spacing" textLength="119" x="525" y="1213.0234">ETLServiceMovie</text></g><!--cluster ApiService--><g id="cluster_ApiService"><rect fill="none" height="236" rx="2.5" ry="2.5" style="stroke:#181818;stroke-width:1.0;" width="316" x="54" y="921.4883"/><path d="M138,921.4883 L138,930.9766 L128,940.9766 L54,940.9766 " fill="none" style="stroke:#181818;stroke-width:1.0;"/><text fill="#000000" font-family="sans-serif" font-size="14" font-weight="bold" lengthAdjust="spacing" textLength="74" x="57" y="936.0234">ApiService</text></g><!--cluster AuthService--><g id="cluster_AuthService"><rect fill="none" height="384.5" rx="2.5" ry="2.5" style="stroke:#181818;stroke-width:1.0;" width="412" x="430" y="487.9883"/><path d="M524,487.9883 L524,497.4766 L514,507.4766 L430,507.4766 " fill="none" style="stroke:#181818;stroke-width:1.0;"/><text fill="#000000" font-family="sans-serif" font-size="14" font-weight="bold" lengthAdjust="spacing" textLength="84" x="433" y="502.5234">AuthService</text></g><!--cluster UGC--><g id="cluster_UGC"><rect fill="none" height="572" rx="2.5" ry="2.5" style="stroke:#181818;stroke-width:1.0;" width="338" x="1099" y="44.4883"/><path d="M1139,44.4883 L1139,53.9766 L1129,63.9766 L1099,63.9766 " fill="none" style="stroke:#181818;stroke-width:1.0;"/><text fill="#000000" font-family="sans-serif" font-size="14" font-weight="bold" lengthAdjust="spacing" textLength="30" x="1102" y="59.0234">UGC</text></g><!--cluster OLTP--><g id="cluster_OLTP"><path d="M1215.5,230.4883 L1255.5,230.4883 A3.75,3.75 0 0 1 1258,232.9883 L1265,252.9766 L1410.5,252.9766 A2.5,2.5 0 0 1 1413,255.4766 L1413,589.9883 A2.5,2.5 0 0 1 1410.5,592.4883 L1215.5,592.4883 A2.5,2.5 0 0 1 1213,589.9883 L1213,232.9883 A2.5,2.5 0 0 1 1215.5,230.4883 " fill="none" style="stroke:#000000;stroke-width:1.5;"/><line style="stroke:#000000;stroke-width:1.5;" x1="1213" x2="1265" y1="252.9766" y2="252.9766"/><text fill="#000000" font-family="sans-serif" font-size="14" font-weight="bold" lengthAdjust="spacing" textLength="39" x="1217" y="246.0234">OLTP</text></g><!--cluster OLAP--><g id="cluster_OLAP"><path d="M1251.5,87.4883 L1291.5,87.4883 A3.75,3.75 0 0 1 1294,89.9883 L1301,109.9766 L1374.5,109.9766 A2.5,2.5 0 0 1 1377,112.4766 L1377,180.9883 A2.5,2.5 0 0 1 1374.5,183.4883 L1251.5,183.4883 A2.5,2.5 0 0 1 1249,180.9883 L1249,89.9883 A2.5,2.5 0 0 1 1251.5,87.4883 " fill="none" style="stroke:#000000;stroke-width:1.5;"/><line style="stroke:#000000;stroke-width:1.5;" x1="1249" x2="1301" y1="109.9766" y2="109.9766"/><text fill="#000000" font-family="sans-serif" font-size="14" font-weight="bold" lengthAdjust="spacing" textLength="39" x="1253" y="103.0234">OLAP</text></g><!--entity nginx_general_balancer--><g id="elem_nginx_general_balancer"><rect fill="#F1F1F1" height="46.4883" rx="2.5" ry="2.5" style="stroke:#181818;stroke-width:0.5;" width="81" x="841.5" y="264.9883"/><rect fill="#F1F1F1" height="10" style="stroke:#181818;stroke-width:0.5;" width="15" x="902.5" y="269.9883"/><rect fill="#F1F1F1" height="2" style="stroke:#181818;stroke-width:0.5;" width="4" x="900.5" y="271.9883"/><rect fill="#F1F1F1" height="2" style="stroke:#181818;stroke-width:0.5;" width="4" x="900.5" y="275.9883"/><text fill="#000000" font-family="sans-serif" font-size="14" lengthAdjust="spacing" textLength="41" x="856.5" y="298.5234">Nginx</text></g><!--entity nginx_admin_panel--><g id="elem_nginx_admin_panel"><rect fill="#F1F1F1" height="46.4883" rx="2.5" ry="2.5" style="stroke:#181818;stroke-width:0.5;" width="81" x="914.5" y="530.4883"/><rect fill="#F1F1F1" height="10" style="stroke:#181818;stroke-width:0.5;" width="15" x="975.5" y="535.4883"/><rect fill="#F1F1F1" height="2" style="stroke:#181818;stroke-width:0.5;" width="4" x="973.5" y="537.4883"/><rect fill="#F1F1F1" height="2" style="stroke:#181818;stroke-width:0.5;" width="4" x="973.5" y="541.4883"/><text fill="#000000" font-family="sans-serif" font-size="14" lengthAdjust="spacing" textLength="41" x="929.5" y="564.0234">Nginx</text></g><!--entity app_serv_admin_panel--><g id="elem_app_serv_admin_panel"><rect fill="#F1F1F1" height="46.4883" rx="2.5" ry="2.5" style="stroke:#181818;stroke-width:0.5;" width="167" x="891.5" y="679.4883"/><rect fill="#F1F1F1" height="10" style="stroke:#181818;stroke-width:0.5;" width="15" x="1038.5" y="684.4883"/><rect fill="#F1F1F1" height="2" style="stroke:#181818;stroke-width:0.5;" width="4" x="1036.5" y="686.4883"/><rect fill="#F1F1F1" height="2" style="stroke:#181818;stroke-width:0.5;" width="4" x="1036.5" y="690.4883"/><text fill="#000000" font-family="sans-serif" font-size="14" lengthAdjust="spacing" textLength="127" x="906.5" y="713.0234">Application_server</text></g><!--entity django_admin_panel--><g id="elem_django_admin_panel"><rect fill="#F1F1F1" height="46.4883" rx="2.5" ry="2.5" style="stroke:#181818;stroke-width:0.5;" width="89" x="910.5" y="802.4883"/><rect fill="#F1F1F1" height="10" style="stroke:#181818;stroke-width:0.5;" width="15" x="979.5" y="807.4883"/><rect fill="#F1F1F1" height="2" style="stroke:#181818;stroke-width:0.5;" width="4" x="977.5" y="809.4883"/><rect fill="#F1F1F1" height="2" style="stroke:#181818;stroke-width:0.5;" width="4" x="977.5" y="813.4883"/><text fill="#000000" font-family="sans-serif" font-size="14" lengthAdjust="spacing" textLength="49" x="925.5" y="836.0234">Django</text></g><!--entity etl_service_movie--><g id="elem_etl_service_movie"><rect fill="#F1F1F1" height="46.4883" rx="2.5" ry="2.5" style="stroke:#181818;stroke-width:0.5;" width="64" x="539" y="1233.4883"/><rect fill="#F1F1F1" height="10" style="stroke:#181818;stroke-width:0.5;" width="15" x="583" y="1238.4883"/><rect fill="#F1F1F1" height="2" style="stroke:#181818;stroke-width:0.5;" width="4" x="581" y="1240.4883"/><rect fill="#F1F1F1" height="2" style="stroke:#181818;stroke-width:0.5;" width="4" x="581" y="1244.4883"/><text fill="#000000" font-family="sans-serif" font-size="14" lengthAdjust="spacing" textLength="24" x="554" y="1267.0234">ETL</text></g><!--entity redis_etl_service_movie--><g id="elem_redis_etl_service_movie"><path d="M542.5,1412.4883 C542.5,1402.4883 571,1402.4883 571,1402.4883 C571,1402.4883 599.5,1402.4883 599.5,1412.4883 L599.5,1437.9766 C599.5,1447.9766 571,1447.9766 571,1447.9766 C571,1447.9766 542.5,1447.9766 542.5,1437.9766 L542.5,1412.4883 " fill="#F1F1F1" style="stroke:#181818;stroke-width:0.5;"/><path d="M542.5,1412.4883 C542.5,1422.4883 571,1422.4883 571,1422.4883 C571,1422.4883 599.5,1422.4883 599.5,1412.4883 " fill="none" style="stroke:#181818;stroke-width:0.5;"/><text fill="#000000" font-family="sans-serif" font-size="14" lengthAdjust="spacing" textLength="37" x="552.5" y="1440.0234">Redis</text></g><!--entity nginx_api_service--><g id="elem_nginx_api_service"><rect fill="#F1F1F1" height="46.4883" rx="2.5" ry="2.5" style="stroke:#181818;stroke-width:0.5;" width="81" x="213.5" y="964.4883"/><rect fill="#F1F1F1" height="10" style="stroke:#181818;stroke-width:0.5;" width="15" x="274.5" y="969.4883"/><rect fill="#F1F1F1" height="2" style="stroke:#181818;stroke-width:0.5;" width="4" x="272.5" y="971.4883"/><rect fill="#F1F1F1" height="2" style="stroke:#181818;stroke-width:0.5;" width="4" x="272.5" y="975.4883"/><text fill="#000000" font-family="sans-serif" font-size="14" lengthAdjust="spacing" textLength="41" x="228.5" y="998.0234">Nginx</text></g><!--entity app_serv_api_service--><g id="elem_app_serv_api_service"><rect fill="#F1F1F1" height="46.4883" rx="2.5" ry="2.5" style="stroke:#181818;stroke-width:0.5;" width="167" x="170.5" y="1087.4883"/><rect fill="#F1F1F1" height="10" style="stroke:#181818;stroke-width:0.5;" width="15" x="317.5" y="1092.4883"/><rect fill="#F1F1F1" height="2" style="stroke:#181818;stroke-width:0.5;" width="4" x="315.5" y="1094.4883"/><rect fill="#F1F1F1" height="2" style="stroke:#181818;stroke-width:0.5;" width="4" x="315.5" y="1098.4883"/><text fill="#000000" font-family="sans-serif" font-size="14" lengthAdjust="spacing" textLength="127" x="185.5" y="1121.0234">Application_server</text></g><!--entity fastapi_api_service--><g id="elem_fastapi_api_service"><rect fill="#F1F1F1" height="46.4883" rx="2.5" ry="2.5" style="stroke:#181818;stroke-width:0.5;" width="90" x="78" y="964.4883"/><rect fill="#F1F1F1" height="10" style="stroke:#181818;stroke-width:0.5;" width="15" x="148" y="969.4883"/><rect fill="#F1F1F1" height="2" style="stroke:#181818;stroke-width:0.5;" width="4" x="146" y="971.4883"/><rect fill="#F1F1F1" height="2" style="stroke:#181818;stroke-width:0.5;" width="4" x="146" y="975.4883"/><text fill="#000000" font-family="sans-serif" font-size="14" lengthAdjust="spacing" textLength="50" x="93" y="998.0234">FastAPI</text></g><!--entity redis_api_service--><g id="elem_redis_api_service"><path d="M78.5,1097.9883 C78.5,1087.9883 107,1087.9883 107,1087.9883 C107,1087.9883 135.5,1087.9883 135.5,1097.9883 L135.5,1123.4766 C135.5,1133.4766 107,1133.4766 107,1133.4766 C107,1133.4766 78.5,1133.4766 78.5,1123.4766 L78.5,1097.9883 " fill="#F1F1F1" style="stroke:#181818;stroke-width:0.5;"/><path d="M78.5,1097.9883 C78.5,1107.9883 107,1107.9883 107,1107.9883 C107,1107.9883 135.5,1107.9883 135.5,1097.9883 " fill="none" style="stroke:#181818;stroke-width:0.5;"/><text fill="#000000" font-family="sans-serif" font-size="14" lengthAdjust="spacing" textLength="37" x="88.5" y="1125.5234">Redis</text></g><!--entity nginx_auth_service--><g id="elem_nginx_auth_service"><rect fill="#F1F1F1" height="46.4883" rx="2.5" ry="2.5" style="stroke:#181818;stroke-width:0.5;" width="81" x="736.5" y="679.4883"/><rect fill="#F1F1F1" height="10" style="stroke:#181818;stroke-width:0.5;" width="15" x="797.5" y="684.4883"/><rect fill="#F1F1F1" height="2" style="stroke:#181818;stroke-width:0.5;" width="4" x="795.5" y="686.4883"/><rect fill="#F1F1F1" height="2" style="stroke:#181818;stroke-width:0.5;" width="4" x="795.5" y="690.4883"/><text fill="#000000" font-family="sans-serif" font-size="14" lengthAdjust="spacing" textLength="41" x="751.5" y="713.0234">Nginx</text></g><!--entity app_serv_auth_service--><g id="elem_app_serv_auth_service"><rect fill="#F1F1F1" height="46.4883" rx="2.5" ry="2.5" style="stroke:#181818;stroke-width:0.5;" width="167" x="624.5" y="802.4883"/><rect fill="#F1F1F1" height="10" style="stroke:#181818;stroke-width:0.5;" width="15" x="771.5" y="807.4883"/><rect fill="#F1F1F1" height="2" style="stroke:#181818;stroke-width:0.5;" width="4" x="769.5" y="809.4883"/><rect fill="#F1F1F1" height="2" style="stroke:#181818;stroke-width:0.5;" width="4" x="769.5" y="813.4883"/><text fill="#000000" font-family="sans-serif" font-size="14" lengthAdjust="spacing" textLength="127" x="639.5" y="836.0234">Application_server</text></g><!--entity flask_auth_service--><g id="elem_flask_auth_service"><rect fill="#F1F1F1" height="46.4883" rx="2.5" ry="2.5" style="stroke:#181818;stroke-width:0.5;" width="75" x="626.5" y="679.4883"/><rect fill="#F1F1F1" height="10" style="stroke:#181818;stroke-width:0.5;" width="15" x="681.5" y="684.4883"/><rect fill="#F1F1F1" height="2" style="stroke:#181818;stroke-width:0.5;" width="4" x="679.5" y="686.4883"/><rect fill="#F1F1F1" height="2" style="stroke:#181818;stroke-width:0.5;" width="4" x="679.5" y="690.4883"/><text fill="#000000" font-family="sans-serif" font-size="14" lengthAdjust="spacing" textLength="35" x="641.5" y="713.0234">Flask</text></g><!--entity posgresql_auth_service--><g id="elem_posgresql_auth_service"><path d="M682,540.9883 C682,530.9883 731,530.9883 731,530.9883 C731,530.9883 780,530.9883 780,540.9883 L780,566.4766 C780,576.4766 731,576.4766 731,576.4766 C731,576.4766 682,576.4766 682,566.4766 L682,540.9883 " fill="#F1F1F1" style="stroke:#181818;stroke-width:0.5;"/><path d="M682,540.9883 C682,550.9883 731,550.9883 731,550.9883 C731,550.9883 780,550.9883 780,540.9883 " fill="none" style="stroke:#181818;stroke-width:0.5;"/><text fill="#000000" font-family="sans-serif" font-size="14" lengthAdjust="spacing" textLength="78" x="692" y="568.5234">PostgreSQL</text></g><!--entity redis_auth_service--><g id="elem_redis_auth_service"><path d="M473.5,540.9883 C473.5,530.9883 502,530.9883 502,530.9883 C502,530.9883 530.5,530.9883 530.5,540.9883 L530.5,566.4766 C530.5,576.4766 502,576.4766 502,576.4766 C502,576.4766 473.5,576.4766 473.5,566.4766 L473.5,540.9883 " fill="#F1F1F1" style="stroke:#181818;stroke-width:0.5;"/><path d="M473.5,540.9883 C473.5,550.9883 502,550.9883 502,550.9883 C502,550.9883 530.5,550.9883 530.5,540.9883 " fill="none" style="stroke:#181818;stroke-width:0.5;"/><text fill="#000000" font-family="sans-serif" font-size="14" lengthAdjust="spacing" textLength="37" x="483.5" y="568.5234">Redis</text></g><!--entity nginx_ugc--><g id="elem_nginx_ugc"><rect fill="#F1F1F1" height="46.4883" rx="2.5" ry="2.5" style="stroke:#181818;stroke-width:0.5;" width="81" x="1115.5" y="386.9883"/><rect fill="#F1F1F1" height="10" style="stroke:#181818;stroke-width:0.5;" width="15" x="1176.5" y="391.9883"/><rect fill="#F1F1F1" height="2" style="stroke:#181818;stroke-width:0.5;" width="4" x="1174.5" y="393.9883"/><rect fill="#F1F1F1" height="2" style="stroke:#181818;stroke-width:0.5;" width="4" x="1174.5" y="397.9883"/><text fill="#000000" font-family="sans-serif" font-size="14" lengthAdjust="spacing" textLength="41" x="1130.5" y="420.5234">Nginx</text></g><!--entity app_serv_oltp--><g id="elem_app_serv_oltp"><rect fill="#F1F1F1" height="46.4883" rx="2.5" ry="2.5" style="stroke:#181818;stroke-width:0.5;" width="167" x="1229.5" y="530.4883"/><rect fill="#F1F1F1" height="10" style="stroke:#181818;stroke-width:0.5;" width="15" x="1376.5" y="535.4883"/><rect fill="#F1F1F1" height="2" style="stroke:#181818;stroke-width:0.5;" width="4" x="1374.5" y="537.4883"/><rect fill="#F1F1F1" height="2" style="stroke:#181818;stroke-width:0.5;" width="4" x="1374.5" y="541.4883"/><text fill="#000000" font-family="sans-serif" font-size="14" lengthAdjust="spacing" textLength="127" x="1244.5" y="564.0234">Application_server</text></g><!--entity fastapi_api_oltp--><g id="elem_fastapi_api_oltp"><rect fill="#F1F1F1" height="46.4883" rx="2.5" ry="2.5" style="stroke:#181818;stroke-width:0.5;" width="90" x="1268" y="386.9883"/><rect fill="#F1F1F1" height="10" style="stroke:#181818;stroke-width:0.5;" width="15" x="1338" y="391.9883"/><rect fill="#F1F1F1" height="2" style="stroke:#181818;stroke-width:0.5;" width="4" x="1336" y="393.9883"/><rect fill="#F1F1F1" height="2" style="stroke:#181818;stroke-width:0.5;" width="4" x="1336" y="397.9883"/><text fill="#000000" font-family="sans-serif" font-size="14" lengthAdjust="spacing" textLength="50" x="1283" y="420.5234">FastAPI</text></g><!--entity kafka_auth_service_oltp--><g id="elem_kafka_auth_service_oltp"><path d="M1284,275.4883 C1284,265.4883 1313,265.4883 1313,265.4883 C1313,265.4883 1342,265.4883 1342,275.4883 L1342,300.9766 C1342,310.9766 1313,310.9766 1313,310.9766 C1313,310.9766 1284,310.9766 1284,300.9766 L1284,275.4883 " fill="#F1F1F1" style="stroke:#181818;stroke-width:0.5;"/><path d="M1284,275.4883 C1284,285.4883 1313,285.4883 1313,285.4883 C1313,285.4883 1342,285.4883 1342,275.4883 " fill="none" style="stroke:#181818;stroke-width:0.5;"/><text fill="#000000" font-family="sans-serif" font-size="14" lengthAdjust="spacing" textLength="38" x="1294" y="303.0234">Kafka</text></g><!--entity ch_olap--><g id="elem_ch_olap"><path d="M1265,132.4883 C1265,122.4883 1313,122.4883 1313,122.4883 C1313,122.4883 1361,122.4883 1361,132.4883 L1361,157.9766 C1361,167.9766 1313,167.9766 1313,167.9766 C1313,167.9766 1265,167.9766 1265,157.9766 L1265,132.4883 " fill="#F1F1F1" style="stroke:#181818;stroke-width:0.5;"/><path d="M1265,132.4883 C1265,142.4883 1313,142.4883 1313,142.4883 C1313,142.4883 1361,142.4883 1361,132.4883 " fill="none" style="stroke:#181818;stroke-width:0.5;"/><text fill="#000000" font-family="sans-serif" font-size="14" lengthAdjust="spacing" textLength="76" x="1275" y="160.0234">ClickHouse</text></g><!--entity User--><g id="elem_User"><ellipse cx="844" cy="115.4883" fill="#F1F1F1" rx="8" ry="8" style="stroke:#181818;stroke-width:0.5;"/><path d="M844,123.4883 L844,150.4883 M831,131.4883 L857,131.4883 M844,150.4883 L831,165.4883 M844,150.4883 L857,165.4883 " fill="none" style="stroke:#181818;stroke-width:0.5;"/><text fill="#000000" font-family="sans-serif" font-size="14" lengthAdjust="spacing" textLength="31" x="828.5" y="180.5234">User</text></g><!--entity Admin--><g id="elem_Admin"><ellipse cx="784" cy="258.4883" fill="#F1F1F1" rx="8" ry="8" style="stroke:#181818;stroke-width:0.5;"/><path d="M784,266.4883 L784,293.4883 M771,274.4883 L797,274.4883 M784,293.4883 L771,308.4883 M784,293.4883 L797,308.4883 " fill="none" style="stroke:#181818;stroke-width:0.5;"/><text fill="#000000" font-family="sans-serif" font-size="14" lengthAdjust="spacing" textLength="45" x="761.5" y="323.5234">Admin</text></g><!--entity Analyst--><g id="elem_Analyst"><ellipse cx="920" cy="115.4883" fill="#F1F1F1" rx="8" ry="8" style="stroke:#181818;stroke-width:0.5;"/><path d="M920,123.4883 L920,150.4883 M907,131.4883 L933,131.4883 M920,150.4883 L907,165.4883 M920,150.4883 L933,165.4883 " fill="none" style="stroke:#181818;stroke-width:0.5;"/><text fill="#000000" font-family="sans-serif" font-size="14" lengthAdjust="spacing" textLength="50" x="895" y="180.5234">Analyst</text></g><!--entity PostgreSQL--><g id="elem_PostgreSQL"><path d="M406,1243.9883 C406,1233.9883 455,1233.9883 455,1233.9883 C455,1233.9883 504,1233.9883 504,1243.9883 L504,1269.4766 C504,1279.4766 455,1279.4766 455,1279.4766 C455,1279.4766 406,1279.4766 406,1269.4766 L406,1243.9883 " fill="#F1F1F1" style="stroke:#181818;stroke-width:0.5;"/><path d="M406,1243.9883 C406,1253.9883 455,1253.9883 455,1253.9883 C455,1253.9883 504,1253.9883 504,1243.9883 " fill="none" style="stroke:#181818;stroke-width:0.5;"/><text fill="#000000" font-family="sans-serif" font-size="14" lengthAdjust="spacing" textLength="78" x="416" y="1271.5234">PostgreSQL</text></g><!--entity elasticsearch_data_service--><g id="elem_elasticsearch_data_service"><path d="M6,1412.4883 C6,1402.4883 60,1402.4883 60,1402.4883 C60,1402.4883 114,1402.4883 114,1412.4883 L114,1437.9766 C114,1447.9766 60,1447.9766 60,1447.9766 C60,1447.9766 6,1447.9766 6,1437.9766 L6,1412.4883 " fill="#F1F1F1" style="stroke:#181818;stroke-width:0.5;"/><path d="M6,1412.4883 C6,1422.4883 60,1422.4883 60,1422.4883 C60,1422.4883 114,1422.4883 114,1412.4883 " fill="none" style="stroke:#181818;stroke-width:0.5;"/><text fill="#000000" font-family="sans-serif" font-size="14" lengthAdjust="spacing" textLength="88" x="16" y="1440.0234">Elasticsearch</text></g><!--link Admin to nginx_general_balancer--><g id="link_Admin_nginx_general_balancer"><path d="M806.97,287.9883 C816.26,287.9883 825.54,287.9883 834.83,287.9883 " fill="none" id="Admin-to-nginx_general_balancer" style="stroke:#181818;stroke-width:1.0;"/><polygon fill="#181818" points="839.75,287.9883,830.75,283.9883,834.75,287.9883,830.75,291.9883,839.75,287.9883" style="stroke:#181818;stroke-width:1.0;"/></g><!--link User to nginx_general_balancer--><g id="link_User_nginx_general_balancer"><path d="M854.08,183.4083 C860.45,207.0183 868.54,237.0383 874.37,258.6683 " fill="none" id="User-to-nginx_general_balancer" style="stroke:#181818;stroke-width:1.0;"/><polygon fill="#181818" points="875.63,263.3583,877.1259,253.6237,874.3168,258.5338,869.4067,255.7248,875.63,263.3583" style="stroke:#181818;stroke-width:1.0;"/></g><!--link Analyst to nginx_general_balancer--><g id="link_Analyst_nginx_general_balancer"><path d="M909.92,183.4083 C903.55,207.0183 895.46,237.0383 889.63,258.6683 " fill="none" id="Analyst-to-nginx_general_balancer" style="stroke:#181818;stroke-width:1.0;"/><polygon fill="#181818" points="888.37,263.3583,894.5933,255.7248,889.6832,258.5338,886.8741,253.6237,888.37,263.3583" style="stroke:#181818;stroke-width:1.0;"/></g><!--link nginx_general_balancer to nginx_admin_panel--><g id="link_nginx_general_balancer_nginx_admin_panel"><path d="M888.22,311.4583 C901.48,359.2883 932.47,471.1483 947.09,523.9383 " fill="none" id="nginx_general_balancer-to-nginx_admin_panel" style="stroke:#181818;stroke-width:1.0;"/><polygon fill="#181818" points="948.39,528.6183,949.8517,518.8785,947.0599,523.7984,942.1399,521.0067,948.39,528.6183" style="stroke:#181818;stroke-width:1.0;"/></g><!--link nginx_admin_panel to app_serv_admin_panel--><g id="link_nginx_admin_panel_app_serv_admin_panel"><path d="M958.04,576.8183 C961.55,602.6483 967.35,645.2383 971.17,673.3183 " fill="none" id="nginx_admin_panel-to-app_serv_admin_panel" style="stroke:#181818;stroke-width:1.0;"/><polygon fill="#181818" points="971.8,677.9383,974.5558,668.4828,971.1289,672.9835,966.6282,669.5566,971.8,677.9383" style="stroke:#181818;stroke-width:1.0;"/></g><!--reverse link app_serv_admin_panel to django_admin_panel--><g id="link_app_serv_admin_panel_django_admin_panel"><path d="M970.23,732.3483 C966.69,753.7383 961.94,782.4783 958.7,802.1283 " fill="none" id="app_serv_admin_panel-backto-django_admin_panel" style="stroke:#181818;stroke-width:1.0;"/><polygon fill="#181818" points="971.04,727.4583,965.6264,735.6859,970.225,732.3914,973.5194,736.9899,971.04,727.4583" style="stroke:#181818;stroke-width:1.0;"/></g><!--reverse link django_admin_panel to PostgreSQL--><g id="link_django_admin_panel_PostgreSQL"><path d="M922.57,852.6483 C849.84,911.5683 668.69,1059.7083 523,1190.4883 C507.32,1204.5583 490.18,1220.9583 477.03,1233.7583 " fill="none" id="django_admin_panel-backto-PostgreSQL" style="stroke:#181818;stroke-width:1.0;"/><polygon fill="#181818" points="926.02,849.8483,916.5126,852.4192,922.1394,853.0012,921.5573,858.6281,926.02,849.8483" style="stroke:#181818;stroke-width:1.0;"/></g><!--link PostgreSQL to etl_service_movie--><g id="link_PostgreSQL_etl_service_movie"><path d="M510.83,1256.4883 C518.1,1256.4883 525.36,1256.4883 532.63,1256.4883 " fill="none" id="PostgreSQL-etl_service_movie" style="stroke:#181818;stroke-width:1.0;"/><polygon fill="#181818" points="505.9,1256.4883,514.9,1260.4883,510.9,1256.4883,514.9,1252.4883,505.9,1256.4883" style="stroke:#181818;stroke-width:1.0;"/><polygon fill="#181818" points="537.22,1256.4883,528.22,1252.4883,532.22,1256.4883,528.22,1260.4883,537.22,1256.4883" style="stroke:#181818;stroke-width:1.0;"/></g><!--link etl_service_movie to elasticsearch_data_service--><g id="link_etl_service_movie_elasticsearch_data_service"><path d="M532.59,1275.2483 C529.03,1276.7383 525.46,1278.1783 522,1279.4883 C380.62,1333.1183 209.75,1382.7483 120.68,1407.4983 " fill="none" id="etl_service_movie-elasticsearch_data_service" style="stroke:#181818;stroke-width:1.0;"/><polygon fill="#181818" points="537.15,1273.3083,527.3024,1273.1511,532.5491,1275.2658,530.4344,1280.5125,537.15,1273.3083" style="stroke:#181818;stroke-width:1.0;"/><polygon fill="#181818" points="115.87,1408.8383,125.6127,1410.2806,120.6872,1407.4986,123.4692,1402.5731,115.87,1408.8383" style="stroke:#181818;stroke-width:1.0;"/></g><!--link etl_service_movie to redis_etl_service_movie--><g id="link_etl_service_movie_redis_etl_service_movie"><path d="M571,1286.2483 C571,1317.0083 571,1365.4483 571,1395.9383 " fill="none" id="etl_service_movie-redis_etl_service_movie" style="stroke:#181818;stroke-width:1.0;stroke-dasharray:7.0,7.0;"/><polygon fill="#181818" points="571,1281.4583,567,1290.4583,571,1286.4583,575,1290.4583,571,1281.4583" style="stroke:#181818;stroke-width:1.0;"/><polygon fill="#181818" points="571,1400.6383,575,1391.6383,571,1395.6383,567,1391.6383,571,1400.6383" style="stroke:#181818;stroke-width:1.0;"/></g><!--link nginx_general_balancer to nginx_api_service--><g id="link_nginx_general_balancer_nginx_api_service"><path d="M859.63,311.4383 C849.56,320.2183 837.02,329.4883 824,334.9883 C706.34,384.7083 254,281.2583 254,408.9883 C254,408.9883 254,408.9883 254,826.4883 C254,872.3883 254,925.6983 254,957.7283 " fill="none" id="nginx_general_balancer-to-nginx_api_service" style="stroke:#181818;stroke-width:1.0;"/><polygon fill="#181818" points="254,962.7183,258,953.7183,254,957.7183,250,953.7183,254,962.7183" style="stroke:#181818;stroke-width:1.0;"/></g><!--link nginx_api_service to app_serv_api_service--><g id="link_nginx_api_service_app_serv_api_service"><path d="M254,1010.9683 C254,1030.6583 254,1059.3983 254,1080.7583 " fill="none" id="nginx_api_service-to-app_serv_api_service" style="stroke:#181818;stroke-width:1.0;"/><polygon fill="#181818" points="254,1085.6183,258,1076.6183,254,1080.6183,250,1076.6183,254,1085.6183" style="stroke:#181818;stroke-width:1.0;"/></g><!--link fastapi_api_service to app_serv_api_service--><g id="link_fastapi_api_service_app_serv_api_service"><path d="M151.44,1010.9283 C162.45,1019.8783 175.02,1030.4283 186,1040.4883 C200.58,1053.8383 216.11,1069.4783 228.64,1082.4883 " fill="none" id="fastapi_api_service-to-app_serv_api_service" style="stroke:#181818;stroke-width:1.0;"/><polygon fill="#181818" points="232.07,1086.0683,228.7212,1076.8062,228.6067,1082.4619,222.951,1082.3474,232.07,1086.0683" style="stroke:#181818;stroke-width:1.0;"/></g><!--reverse link fastapi_api_service to redis_api_service--><g id="link_fastapi_api_service_redis_api_service"><path d="M119.18,1017.3883 C116.33,1038.9283 112.5,1067.8883 109.9,1087.5383 " fill="none" id="fastapi_api_service-backto-redis_api_service" style="stroke:#181818;stroke-width:1.0;"/><polygon fill="#181818" points="119.83,1012.4683,114.682,1020.8646,119.1729,1017.4249,122.6126,1021.9159,119.83,1012.4683" style="stroke:#181818;stroke-width:1.0;"/><text fill="#000000" font-family="sans-serif" font-size="13" lengthAdjust="spacing" textLength="60" x="117" y="1054.0566">cash data</text></g><!--reverse link fastapi_api_service to elasticsearch_data_service--><g id="link_fastapi_api_service_elasticsearch_data_service"><path d="M83.69,1014.9083 C56.43,1036.6883 25,1070.2983 25,1109.4883 C25,1109.4883 25,1109.4883 25,1341.4883 C25,1363.4283 35.62,1386.2283 45.16,1402.2783 " fill="none" id="fastapi_api_service-backto-elasticsearch_data_service" style="stroke:#181818;stroke-width:1.0;"/><polygon fill="#181818" points="87.53,1011.9083,77.9772,1014.305,83.5925,1014.9898,82.9077,1020.6051,87.53,1011.9083" style="stroke:#181818;stroke-width:1.0;"/></g><!--link nginx_general_balancer to nginx_auth_service--><g id="link_nginx_general_balancer_nginx_auth_service"><path d="M876.92,311.4583 C863.96,368.3283 828.2,522.4383 793,649.4883 C790.89,657.0983 788.45,665.2783 786.13,672.8583 " fill="none" id="nginx_general_balancer-to-nginx_auth_service" style="stroke:#181818;stroke-width:1.0;"/><polygon fill="#181818" points="784.66,677.5983,791.1346,670.1767,786.1334,672.8203,783.4898,667.8192,784.66,677.5983" style="stroke:#181818;stroke-width:1.0;"/></g><!--link nginx_auth_service to app_serv_auth_service--><g id="link_nginx_auth_service_app_serv_auth_service"><path d="M764.18,725.9683 C752.81,745.9183 736.14,775.1383 723.91,796.5883 " fill="none" id="nginx_auth_service-to-app_serv_auth_service" style="stroke:#181818;stroke-width:1.0;"/><polygon fill="#181818" points="721.5,800.8183,729.4279,794.9746,723.973,796.4727,722.4749,791.0178,721.5,800.8183" style="stroke:#181818;stroke-width:1.0;"/></g><!--link flask_auth_service to app_serv_auth_service--><g id="link_flask_auth_service_app_serv_auth_service"><path d="M672.17,725.9683 C679.37,745.7483 689.88,774.6483 697.65,796.0383 " fill="none" id="flask_auth_service-to-app_serv_auth_service" style="stroke:#181818;stroke-width:1.0;"/><polygon fill="#181818" points="699.35,800.7083,700.0503,790.8844,697.6493,796.0064,692.5273,793.6054,699.35,800.7083" style="stroke:#181818;stroke-width:1.0;"/></g><!--link posgresql_auth_service to flask_auth_service--><g id="link_posgresql_auth_service_flask_auth_service"><path d="M722.8,576.2783 C715.31,595.7083 703.66,624.8283 692,649.4883 C688.19,657.5483 683.74,666.1283 679.52,673.9483 " fill="none" id="posgresql_auth_service-to-flask_auth_service" style="stroke:#181818;stroke-width:1.0;"/><polygon fill="#181818" points="677.37,677.8983,685.1762,671.8931,679.7533,673.5028,678.1435,668.0798,677.37,677.8983" style="stroke:#181818;stroke-width:1.0;"/><text fill="#000000" font-family="sans-serif" font-size="13" lengthAdjust="spacing" textLength="85" x="699" y="646.0566">storage users</text></g><!--link redis_auth_service to flask_auth_service--><g id="link_redis_auth_service_flask_auth_service"><path d="M491.17,576.3383 C482.56,597.1683 474.31,628.4283 490,649.4883 C505.56,670.3783 573.52,685.9683 619.75,694.3883 " fill="none" id="redis_auth_service-to-flask_auth_service" style="stroke:#181818;stroke-width:1.0;"/><polygon fill="#181818" points="624.64,695.2683,616.4739,689.7624,619.7164,694.3977,615.081,697.6402,624.64,695.2683" style="stroke:#181818;stroke-width:1.0;"/><text fill="#000000" font-family="sans-serif" font-size="13" lengthAdjust="spacing" textLength="192" x="491" y="646.0566">storage refresh, invalid tokens</text></g><!--reverse link AuthService to ApiService--><g id="link_AuthService_ApiService"><path d="M429.9797,565.1819 C429.7793,565.4563 429.5756,565.7356 429.3688,566.0197 C427.7141,568.2925 425.8575,570.8735 423.8311,573.7375 C415.7253,585.1936 404.9019,601.1777 393.4163,620.0745 C370.445,657.8683 344.825,707.3133 333,755.4883 C331.2,762.8283 332.41,764.9583 333,772.4883 C337.68,832.1483 346.39,846.1283 354,905.4883 C354.5575,909.8333 355.0973,914.3138 355.6156,918.8332 C355.6804,919.3981 355.7449,919.9636 355.809,920.5296 C355.841,920.8126 355.873,921.0956 355.9049,921.3788 " fill="none" id="AuthService-backto-ApiService" style="stroke:#181818;stroke-width:1.0;"/><polygon fill="#181818" points="429.9797,565.1819,421.441,570.09,427.0304,569.2194,427.901,574.8089,429.9797,565.1819" style="stroke:#181818;stroke-width:1.0;"/><text fill="#000000" font-family="sans-serif" font-size="13" lengthAdjust="spacing" textLength="111" x="334" y="769.0566">check permission</text></g><!--link nginx_general_balancer to nginx_ugc--><g id="link_nginx_general_balancer_nginx_ugc"><path d="M922.72,306.8283 C972.54,328.6383 1056.68,365.4883 1109.13,388.4583 " fill="none" id="nginx_general_balancer-to-nginx_ugc" style="stroke:#181818;stroke-width:1.0;"/><polygon fill="#181818" points="1113.67,390.4483,1107.0386,383.1665,1109.0922,388.4375,1103.8212,390.4911,1113.67,390.4483" style="stroke:#181818;stroke-width:1.0;"/></g><!--link nginx_ugc to app_serv_oltp--><g id="link_nginx_ugc_app_serv_oltp"><path d="M1180.88,433.4083 C1208.78,458.5583 1254,499.3183 1283.62,526.0083 " fill="none" id="nginx_ugc-to-app_serv_oltp" style="stroke:#181818;stroke-width:1.0;"/><polygon fill="#181818" points="1287.11,529.1583,1283.0962,520.1644,1283.3935,525.8135,1277.7445,526.1108,1287.11,529.1583" style="stroke:#181818;stroke-width:1.0;"/></g><!--link fastapi_api_oltp to app_serv_oltp--><g id="link_fastapi_api_oltp_app_serv_oltp"><path d="M1313,433.4083 C1313,457.8383 1313,496.9783 1313,523.6683 " fill="none" id="fastapi_api_oltp-to-app_serv_oltp" style="stroke:#181818;stroke-width:1.0;"/><polygon fill="#181818" points="1313,528.6583,1317,519.6583,1313,523.6583,1309,519.6583,1313,528.6583" style="stroke:#181818;stroke-width:1.0;"/></g><!--link kafka_auth_service_oltp to fastapi_api_oltp--><g id="link_kafka_auth_service_oltp_fastapi_api_oltp"><path d="M1313,310.7183 C1313,330.1883 1313,358.8683 1313,380.2283 " fill="none" id="kafka_auth_service_oltp-to-fastapi_api_oltp" style="stroke:#181818;stroke-width:1.0;"/><polygon fill="#181818" points="1313,385.0883,1317,376.0883,1313,380.0883,1309,376.0883,1313,385.0883" style="stroke:#181818;stroke-width:1.0;"/></g><!--link ch_olap to kafka_auth_service_oltp--><g id="link_ch_olap_kafka_auth_service_oltp"><path d="M1313,167.7083 C1313,192.1683 1313,231.9883 1313,258.8183 " fill="none" id="ch_olap-to-kafka_auth_service_oltp" style="stroke:#181818;stroke-width:1.0;"/><polygon fill="#181818" points="1313,263.4983,1317,254.4983,1313,258.4983,1309,254.4983,1313,263.4983" style="stroke:#181818;stroke-width:1.0;"/></g><!--SRC=[dPNBRjim44Nt_0f-GDr5bq5WG77pGftOJPnkYa2OoBJCYY9PaZOQ5Fdt3cbPflLoKgz6vBcZcJ5vPGikDHWeQQPAhIIJxj6z2aOtfVX2RBtx0bcH6xMHouaIoj2xsUBsHxAudTqJuhX3mS_aONBpV4ONCtfnIGXa3h4doqmL9ikIotqiGRnQHmXPON96hvba1iG5290PC_GleVYhAwBtEPT_A5WgVP3cEpnzgNZojayKNZ87oSIf7E39L7kq0IPQ2vw1uqgcMFuMwq4LQ1sU1eHVVu7CbOUN8Jf2iKIo10SlO1cTA-jomnw_J_U5NowcZvYTP-nERJbhLO_xFZ5p8bI1N5fwC61rtWUsvDPpnWTfctwBYhWKO1tFB0EJhKFoU27rt5vTZrVpgigJuzMy5dzilBt2AwmkcTzwUeMX1vjmto1Yxd1MDcxztcuG_Szs-fLNEEuYTEE3DjbnMZojbSK7-riCA9hjns3T_zFrPDTtRzkRFFFx6ky-v8pEfejvDQaFpK09fpjKFV_d4Lrtz0rM1NYqyC5HHxNYxRZO92xsa6c2fHOtQeCXfiE3hWHKyd19IV0GEXgPqRZFRxoj8T6xN_dR44Awrr5IQsBxQAs4t9scrBL8pqUZBbTgBtaIsTYX28bEu7cOIzjPMYiXqNZ8LBeadr7IPru38plCBBhfhPN6p2Aqmr0-1llvjho6dj4Cx3gSlLxLaEk-f-7uRhUN6bt4SDjs1k1krmc2ZZndrE9dtbz3l6R6ahODdLOQji8NhZzHBhSW-98wLJ1fIMpRkxCQVPLmu6kM5LGpKt9hqP06XZYERAwEZcSGhANfJXr8ZoljkcoQM-KvORD7-0y0]--></g></svg>