<?xml version="1.0" encoding="UTF-8" standalone="no"?><svg xmlns="http://www.w3.org/2000/svg" xmlns:xlink="http://www.w3.org/1999/xlink" contentStyleType="text/css" height="1448px" preserveAspectRatio="none" style="width:1741px;height:1448px;background:#EFEFFF;" version="1.1" viewBox="0 0 1741 1448" width="1741px" zoomAndPan="magnify"><defs/><g><rect fill="#EFEFFF" height="1448" style="stroke:none;stroke-width:1.0;" width="1741" x="0" y="0"/><text fill="#000000" font-family="sans-serif" font-size="14" font-weight="bold" lengthAdjust="spacing" textLength="103" x="812" y="23.5352">[ARCH]: TO BE</text><!--cluster GeneralBalancer--><g id="cluster_GeneralBalancer"><rect fill="none" height="97" rx="2.5" ry="2.5" style="stroke:#181818;stroke-width:1.0;" width="130" x="824" y="208.9883"/><path d="M948,208.9883 L948,218.4766 L938,228.4766 L824,228.4766 " fill="none" style="stroke:#181818;stroke-width:1.0;"/><text fill="#000000" font-family="sans-serif" font-size="14" font-weight="bold" lengthAdjust="spacing" textLength="114" x="827" y="223.5234">GeneralBalancer</text></g><!--cluster AdminPanel--><g id="cluster_AdminPanel"><rect fill="none" height="369" rx="2.5" ry="2.5" style="stroke:#181818;stroke-width:1.0;" width="200" x="875" y="474.4883"/><path d="M971,474.4883 L971,483.9766 L961,493.9766 L875,493.9766 " fill="none" style="stroke:#181818;stroke-width:1.0;"/><text fill="#000000" font-family="sans-serif" font-size="14" font-weight="bold" lengthAdjust="spacing" textLength="86" x="878" y="489.0234">AdminPanel</text></g><!--cluster ETLServiceMovie--><g id="cluster_ETLServiceMovie"><rect fill="none" height="265" rx="2.5" ry="2.5" style="stroke:#181818;stroke-width:1.0;" width="135" x="522" y="1177.4883"/><path d="M651,1177.4883 L651,1186.9766 L641,1196.9766 L522,1196.9766 " fill="none" style="stroke:#181818;stroke-width:1.0;"/><text fill="#000000" font-family="sans-serif" font-size="14" font-weight="bold" lengthAdjust="spacing" textLength="119" x="525" y="1192.0234">ETLServiceMovie</text></g><!--cluster ApiService--><g id="cluster_ApiService"><rect fill="none" height="236" rx="2.5" ry="2.5" style="stroke:#181818;stroke-width:1.0;" width="316" x="54" y="900.4883"/><path d="M138,900.4883 L138,909.9766 L128,919.9766 L54,919.9766 " fill="none" style="stroke:#181818;stroke-width:1.0;"/><text fill="#000000" font-family="sans-serif" font-size="14" font-weight="bold" lengthAdjust="spacing" textLength="74" x="57" y="915.0234">ApiService</text></g><!--cluster AuthService--><g id="cluster_AuthService"><rect fill="none" height="384.5" rx="2.5" ry="2.5" style="stroke:#181818;stroke-width:1.0;" width="412" x="430" y="466.9883"/><path d="M524,466.9883 L524,476.4766 L514,486.4766 L430,486.4766 " fill="none" style="stroke:#181818;stroke-width:1.0;"/><text fill="#000000" font-family="sans-serif" font-size="14" font-weight="bold" lengthAdjust="spacing" textLength="84" x="433" y="481.5234">AuthService</text></g><!--cluster UGC--><g id="cluster_UGC"><rect fill="none" height="429.5" rx="2.5" ry="2.5" style="stroke:#181818;stroke-width:1.0;" width="636" x="1099" y="165.9883"/><path d="M1139,165.9883 L1139,175.4766 L1129,185.4766 L1099,185.4766 " fill="none" style="stroke:#181818;stroke-width:1.0;"/><text fill="#000000" font-family="sans-serif" font-size="14" font-weight="bold" lengthAdjust="spacing" textLength="30" x="1102" y="180.5234">UGC</text></g><!--cluster OLTP--><g id="cluster_OLTP"><path d="M1215.5,209.4883 L1255.5,209.4883 A3.75,3.75 0 0 1 1258,211.9883 L1265,231.9766 L1410.5,231.9766 A2.5,2.5 0 0 1 1413,234.4766 L1413,568.9883 A2.5,2.5 0 0 1 1410.5,571.4883 L1215.5,571.4883 A2.5,2.5 0 0 1 1213,568.9883 L1213,211.9883 A2.5,2.5 0 0 1 1215.5,209.4883 " fill="none" style="stroke:#000000;stroke-width:1.5;"/><line style="stroke:#000000;stroke-width:1.5;" x1="1213" x2="1265" y1="231.9766" y2="231.9766"/><text fill="#000000" font-family="sans-serif" font-size="14" font-weight="bold" lengthAdjust="spacing" textLength="39" x="1217" y="225.0234">OLTP</text></g><!--cluster OLAP--><g id="cluster_OLAP"><path d="M1585.5,209.4883 L1625.5,209.4883 A3.75,3.75 0 0 1 1628,211.9883 L1635,231.9766 L1708.5,231.9766 A2.5,2.5 0 0 1 1711,234.4766 L1711,302.9883 A2.5,2.5 0 0 1 1708.5,305.4883 L1585.5,305.4883 A2.5,2.5 0 0 1 1583,302.9883 L1583,211.9883 A2.5,2.5 0 0 1 1585.5,209.4883 " fill="none" style="stroke:#000000;stroke-width:1.5;"/><line style="stroke:#000000;stroke-width:1.5;" x1="1583" x2="1635" y1="231.9766" y2="231.9766"/><text fill="#000000" font-family="sans-serif" font-size="14" font-weight="bold" lengthAdjust="spacing" textLength="39" x="1587" y="225.0234">OLAP</text></g><!--cluster ETLServiceUGC--><g id="cluster_ETLServiceUGC"><path d="M1439.5,208.9883 L1546.5,208.9883 A3.75,3.75 0 0 1 1549,211.4883 L1556,231.4766 L1556.5,231.4766 A2.5,2.5 0 0 1 1559,233.9766 L1559,568.4883 A2.5,2.5 0 0 1 1556.5,570.9883 L1439.5,570.9883 A2.5,2.5 0 0 1 1437,568.4883 L1437,211.4883 A2.5,2.5 0 0 1 1439.5,208.9883 " fill="none" style="stroke:#000000;stroke-width:1.5;"/><line style="stroke:#000000;stroke-width:1.5;" x1="1437" x2="1556" y1="231.4766" y2="231.4766"/><text fill="#000000" font-family="sans-serif" font-size="14" font-weight="bold" lengthAdjust="spacing" textLength="106" x="1441" y="224.5234">ETLServiceUGC</text></g><!--entity nginx_general_balancer--><g id="elem_nginx_general_balancer"><rect fill="#F1F1F1" height="46.4883" rx="2.5" ry="2.5" style="stroke:#181818;stroke-width:0.5;" width="81" x="841.5" y="243.9883"/><rect fill="#F1F1F1" height="10" style="stroke:#181818;stroke-width:0.5;" width="15" x="902.5" y="248.9883"/><rect fill="#F1F1F1" height="2" style="stroke:#181818;stroke-width:0.5;" width="4" x="900.5" y="250.9883"/><rect fill="#F1F1F1" height="2" style="stroke:#181818;stroke-width:0.5;" width="4" x="900.5" y="254.9883"/><text fill="#000000" font-family="sans-serif" font-size="14" lengthAdjust="spacing" textLength="41" x="856.5" y="277.5234">Nginx</text></g><!--entity nginx_admin_panel--><g id="elem_nginx_admin_panel"><rect fill="#F1F1F1" height="46.4883" rx="2.5" ry="2.5" style="stroke:#181818;stroke-width:0.5;" width="81" x="914.5" y="509.4883"/><rect fill="#F1F1F1" height="10" style="stroke:#181818;stroke-width:0.5;" width="15" x="975.5" y="514.4883"/><rect fill="#F1F1F1" height="2" style="stroke:#181818;stroke-width:0.5;" width="4" x="973.5" y="516.4883"/><rect fill="#F1F1F1" height="2" style="stroke:#181818;stroke-width:0.5;" width="4" x="973.5" y="520.4883"/><text fill="#000000" font-family="sans-serif" font-size="14" lengthAdjust="spacing" textLength="41" x="929.5" y="543.0234">Nginx</text></g><!--entity app_serv_admin_panel--><g id="elem_app_serv_admin_panel"><rect fill="#F1F1F1" height="46.4883" rx="2.5" ry="2.5" style="stroke:#181818;stroke-width:0.5;" width="167" x="891.5" y="658.4883"/><rect fill="#F1F1F1" height="10" style="stroke:#181818;stroke-width:0.5;" width="15" x="1038.5" y="663.4883"/><rect fill="#F1F1F1" height="2" style="stroke:#181818;stroke-width:0.5;" width="4" x="1036.5" y="665.4883"/><rect fill="#F1F1F1" height="2" style="stroke:#181818;stroke-width:0.5;" width="4" x="1036.5" y="669.4883"/><text fill="#000000" font-family="sans-serif" font-size="14" lengthAdjust="spacing" textLength="127" x="906.5" y="692.0234">Application_server</text></g><!--entity django_admin_panel--><g id="elem_django_admin_panel"><rect fill="#F1F1F1" height="46.4883" rx="2.5" ry="2.5" style="stroke:#181818;stroke-width:0.5;" width="89" x="910.5" y="781.4883"/><rect fill="#F1F1F1" height="10" style="stroke:#181818;stroke-width:0.5;" width="15" x="979.5" y="786.4883"/><rect fill="#F1F1F1" height="2" style="stroke:#181818;stroke-width:0.5;" width="4" x="977.5" y="788.4883"/><rect fill="#F1F1F1" height="2" style="stroke:#181818;stroke-width:0.5;" width="4" x="977.5" y="792.4883"/><text fill="#000000" font-family="sans-serif" font-size="14" lengthAdjust="spacing" textLength="49" x="925.5" y="815.0234">Django</text></g><!--entity etl_service_movie--><g id="elem_etl_service_movie"><rect fill="#F1F1F1" height="46.4883" rx="2.5" ry="2.5" style="stroke:#181818;stroke-width:0.5;" width="64" x="539" y="1212.4883"/><rect fill="#F1F1F1" height="10" style="stroke:#181818;stroke-width:0.5;" width="15" x="583" y="1217.4883"/><rect fill="#F1F1F1" height="2" style="stroke:#181818;stroke-width:0.5;" width="4" x="581" y="1219.4883"/><rect fill="#F1F1F1" height="2" style="stroke:#181818;stroke-width:0.5;" width="4" x="581" y="1223.4883"/><text fill="#000000" font-family="sans-serif" font-size="14" lengthAdjust="spacing" textLength="24" x="554" y="1246.0234">ETL</text></g><!--entity redis_etl_service_movie--><g id="elem_redis_etl_service_movie"><path d="M542.5,1391.4883 C542.5,1381.4883 571,1381.4883 571,1381.4883 C571,1381.4883 599.5,1381.4883 599.5,1391.4883 L599.5,1416.9766 C599.5,1426.9766 571,1426.9766 571,1426.9766 C571,1426.9766 542.5,1426.9766 542.5,1416.9766 L542.5,1391.4883 " fill="#F1F1F1" style="stroke:#181818;stroke-width:0.5;"/><path d="M542.5,1391.4883 C542.5,1401.4883 571,1401.4883 571,1401.4883 C571,1401.4883 599.5,1401.4883 599.5,1391.4883 " fill="none" style="stroke:#181818;stroke-width:0.5;"/><text fill="#000000" font-family="sans-serif" font-size="14" lengthAdjust="spacing" textLength="37" x="552.5" y="1419.0234">Redis</text></g><!--entity nginx_api_service--><g id="elem_nginx_api_service"><rect fill="#F1F1F1" height="46.4883" rx="2.5" ry="2.5" style="stroke:#181818;stroke-width:0.5;" width="81" x="213.5" y="943.4883"/><rect fill="#F1F1F1" height="10" style="stroke:#181818;stroke-width:0.5;" width="15" x="274.5" y="948.4883"/><rect fill="#F1F1F1" height="2" style="stroke:#181818;stroke-width:0.5;" width="4" x="272.5" y="950.4883"/><rect fill="#F1F1F1" height="2" style="stroke:#181818;stroke-width:0.5;" width="4" x="272.5" y="954.4883"/><text fill="#000000" font-family="sans-serif" font-size="14" lengthAdjust="spacing" textLength="41" x="228.5" y="977.0234">Nginx</text></g><!--entity app_serv_api_service--><g id="elem_app_serv_api_service"><rect fill="#F1F1F1" height="46.4883" rx="2.5" ry="2.5" style="stroke:#181818;stroke-width:0.5;" width="167" x="170.5" y="1066.4883"/><rect fill="#F1F1F1" height="10" style="stroke:#181818;stroke-width:0.5;" width="15" x="317.5" y="1071.4883"/><rect fill="#F1F1F1" height="2" style="stroke:#181818;stroke-width:0.5;" width="4" x="315.5" y="1073.4883"/><rect fill="#F1F1F1" height="2" style="stroke:#181818;stroke-width:0.5;" width="4" x="315.5" y="1077.4883"/><text fill="#000000" font-family="sans-serif" font-size="14" lengthAdjust="spacing" textLength="127" x="185.5" y="1100.0234">Application_server</text></g><!--entity fastapi_api_service--><g id="elem_fastapi_api_service"><rect fill="#F1F1F1" height="46.4883" rx="2.5" ry="2.5" style="stroke:#181818;stroke-width:0.5;" width="90" x="78" y="943.4883"/><rect fill="#F1F1F1" height="10" style="stroke:#181818;stroke-width:0.5;" width="15" x="148" y="948.4883"/><rect fill="#F1F1F1" height="2" style="stroke:#181818;stroke-width:0.5;" width="4" x="146" y="950.4883"/><rect fill="#F1F1F1" height="2" style="stroke:#181818;stroke-width:0.5;" width="4" x="146" y="954.4883"/><text fill="#000000" font-family="sans-serif" font-size="14" lengthAdjust="spacing" textLength="50" x="93" y="977.0234">FastAPI</text></g><!--entity redis_api_service--><g id="elem_redis_api_service"><path d="M78.5,1076.9883 C78.5,1066.9883 107,1066.9883 107,1066.9883 C107,1066.9883 135.5,1066.9883 135.5,1076.9883 L135.5,1102.4766 C135.5,1112.4766 107,1112.4766 107,1112.4766 C107,1112.4766 78.5,1112.4766 78.5,1102.4766 L78.5,1076.9883 " fill="#F1F1F1" style="stroke:#181818;stroke-width:0.5;"/><path d="M78.5,1076.9883 C78.5,1086.9883 107,1086.9883 107,1086.9883 C107,1086.9883 135.5,1086.9883 135.5,1076.9883 " fill="none" style="stroke:#181818;stroke-width:0.5;"/><text fill="#000000" font-family="sans-serif" font-size="14" lengthAdjust="spacing" textLength="37" x="88.5" y="1104.5234">Redis</text></g><!--entity nginx_auth_service--><g id="elem_nginx_auth_service"><rect fill="#F1F1F1" height="46.4883" rx="2.5" ry="2.5" style="stroke:#181818;stroke-width:0.5;" width="81" x="736.5" y="658.4883"/><rect fill="#F1F1F1" height="10" style="stroke:#181818;stroke-width:0.5;" width="15" x="797.5" y="663.4883"/><rect fill="#F1F1F1" height="2" style="stroke:#181818;stroke-width:0.5;" width="4" x="795.5" y="665.4883"/><rect fill="#F1F1F1" height="2" style="stroke:#181818;stroke-width:0.5;" width="4" x="795.5" y="669.4883"/><text fill="#000000" font-family="sans-serif" font-size="14" lengthAdjust="spacing" textLength="41" x="751.5" y="692.0234">Nginx</text></g><!--entity app_serv_auth_service--><g id="elem_app_serv_auth_service"><rect fill="#F1F1F1" height="46.4883" rx="2.5" ry="2.5" style="stroke:#181818;stroke-width:0.5;" width="167" x="624.5" y="781.4883"/><rect fill="#F1F1F1" height="10" style="stroke:#181818;stroke-width:0.5;" width="15" x="771.5" y="786.4883"/><rect fill="#F1F1F1" height="2" style="stroke:#181818;stroke-width:0.5;" width="4" x="769.5" y="788.4883"/><rect fill="#F1F1F1" height="2" style="stroke:#181818;stroke-width:0.5;" width="4" x="769.5" y="792.4883"/><text fill="#000000" font-family="sans-serif" font-size="14" lengthAdjust="spacing" textLength="127" x="639.5" y="815.0234">Application_server</text></g><!--entity flask_auth_service--><g id="elem_flask_auth_service"><rect fill="#F1F1F1" height="46.4883" rx="2.5" ry="2.5" style="stroke:#181818;stroke-width:0.5;" width="75" x="626.5" y="658.4883"/><rect fill="#F1F1F1" height="10" style="stroke:#181818;stroke-width:0.5;" width="15" x="681.5" y="663.4883"/><rect fill="#F1F1F1" height="2" style="stroke:#181818;stroke-width:0.5;" width="4" x="679.5" y="665.4883"/><rect fill="#F1F1F1" height="2" style="stroke:#181818;stroke-width:0.5;" width="4" x="679.5" y="669.4883"/><text fill="#000000" font-family="sans-serif" font-size="14" lengthAdjust="spacing" textLength="35" x="641.5" y="692.0234">Flask</text></g><!--entity posgresql_auth_service--><g id="elem_posgresql_auth_service"><path d="M682,519.9883 C682,509.9883 731,509.9883 731,509.9883 C731,509.9883 780,509.9883 780,519.9883 L780,545.4766 C780,555.4766 731,555.4766 731,555.4766 C731,555.4766 682,555.4766 682,545.4766 L682,519.9883 " fill="#F1F1F1" style="stroke:#181818;stroke-width:0.5;"/><path d="M682,519.9883 C682,529.9883 731,529.9883 731,529.9883 C731,529.9883 780,529.9883 780,519.9883 " fill="none" style="stroke:#181818;stroke-width:0.5;"/><text fill="#000000" font-family="sans-serif" font-size="14" lengthAdjust="spacing" textLength="78" x="692" y="547.5234">PostgreSQL</text></g><!--entity redis_auth_service--><g id="elem_redis_auth_service"><path d="M473.5,519.9883 C473.5,509.9883 502,509.9883 502,509.9883 C502,509.9883 530.5,509.9883 530.5,519.9883 L530.5,545.4766 C530.5,555.4766 502,555.4766 502,555.4766 C502,555.4766 473.5,555.4766 473.5,545.4766 L473.5,519.9883 " fill="#F1F1F1" style="stroke:#181818;stroke-width:0.5;"/><path d="M473.5,519.9883 C473.5,529.9883 502,529.9883 502,529.9883 C502,529.9883 530.5,529.9883 530.5,519.9883 " fill="none" style="stroke:#181818;stroke-width:0.5;"/><text fill="#000000" font-family="sans-serif" font-size="14" lengthAdjust="spacing" textLength="37" x="483.5" y="547.5234">Redis</text></g><!--entity nginx_ugc--><g id="elem_nginx_ugc"><rect fill="#F1F1F1" height="46.4883" rx="2.5" ry="2.5" style="stroke:#181818;stroke-width:0.5;" width="81" x="1115.5" y="365.9883"/><rect fill="#F1F1F1" height="10" style="stroke:#181818;stroke-width:0.5;" width="15" x="1176.5" y="370.9883"/><rect fill="#F1F1F1" height="2" style="stroke:#181818;stroke-width:0.5;" width="4" x="1174.5" y="372.9883"/><rect fill="#F1F1F1" height="2" style="stroke:#181818;stroke-width:0.5;" width="4" x="1174.5" y="376.9883"/><text fill="#000000" font-family="sans-serif" font-size="14" lengthAdjust="spacing" textLength="41" x="1130.5" y="399.5234">Nginx</text></g><!--entity app_serv_oltp--><g id="elem_app_serv_oltp"><rect fill="#F1F1F1" height="46.4883" rx="2.5" ry="2.5" style="stroke:#181818;stroke-width:0.5;" width="167" x="1229.5" y="509.4883"/><rect fill="#F1F1F1" height="10" style="stroke:#181818;stroke-width:0.5;" width="15" x="1376.5" y="514.4883"/><rect fill="#F1F1F1" height="2" style="stroke:#181818;stroke-width:0.5;" width="4" x="1374.5" y="516.4883"/><rect fill="#F1F1F1" height="2" style="stroke:#181818;stroke-width:0.5;" width="4" x="1374.5" y="520.4883"/><text fill="#000000" font-family="sans-serif" font-size="14" lengthAdjust="spacing" textLength="127" x="1244.5" y="543.0234">Application_server</text></g><!--entity fastapi_api_oltp--><g id="elem_fastapi_api_oltp"><rect fill="#F1F1F1" height="46.4883" rx="2.5" ry="2.5" style="stroke:#181818;stroke-width:0.5;" width="90" x="1289" y="365.9883"/><rect fill="#F1F1F1" height="10" style="stroke:#181818;stroke-width:0.5;" width="15" x="1359" y="370.9883"/><rect fill="#F1F1F1" height="2" style="stroke:#181818;stroke-width:0.5;" width="4" x="1357" y="372.9883"/><rect fill="#F1F1F1" height="2" style="stroke:#181818;stroke-width:0.5;" width="4" x="1357" y="376.9883"/><text fill="#000000" font-family="sans-serif" font-size="14" lengthAdjust="spacing" textLength="50" x="1304" y="399.5234">FastAPI</text></g><!--entity kafka_auth_service_oltp--><g id="elem_kafka_auth_service_oltp"><path d="M1335,254.4883 C1335,244.4883 1364,244.4883 1364,244.4883 C1364,244.4883 1393,244.4883 1393,254.4883 L1393,279.9766 C1393,289.9766 1364,289.9766 1364,289.9766 C1364,289.9766 1335,289.9766 1335,279.9766 L1335,254.4883 " fill="#F1F1F1" style="stroke:#181818;stroke-width:0.5;"/><path d="M1335,254.4883 C1335,264.4883 1364,264.4883 1364,264.4883 C1364,264.4883 1393,264.4883 1393,254.4883 " fill="none" style="stroke:#181818;stroke-width:0.5;"/><text fill="#000000" font-family="sans-serif" font-size="14" lengthAdjust="spacing" textLength="38" x="1345" y="282.0234">Kafka</text></g><!--entity ch_olap--><g id="elem_ch_olap"><path d="M1599,254.4883 C1599,244.4883 1647,244.4883 1647,244.4883 C1647,244.4883 1695,244.4883 1695,254.4883 L1695,279.9766 C1695,289.9766 1647,289.9766 1647,289.9766 C1647,289.9766 1599,289.9766 1599,279.9766 L1599,254.4883 " fill="#F1F1F1" style="stroke:#181818;stroke-width:0.5;"/><path d="M1599,254.4883 C1599,264.4883 1647,264.4883 1647,264.4883 C1647,264.4883 1695,264.4883 1695,254.4883 " fill="none" style="stroke:#181818;stroke-width:0.5;"/><text fill="#000000" font-family="sans-serif" font-size="14" lengthAdjust="spacing" textLength="76" x="1609" y="282.0234">ClickHouse</text></g><!--entity etl_service_ugc--><g id="elem_etl_service_ugc"><rect fill="#F1F1F1" height="46.4883" rx="2.5" ry="2.5" style="stroke:#181818;stroke-width:0.5;" width="64" x="1466" y="243.9883"/><rect fill="#F1F1F1" height="10" style="stroke:#181818;stroke-width:0.5;" width="15" x="1510" y="248.9883"/><rect fill="#F1F1F1" height="2" style="stroke:#181818;stroke-width:0.5;" width="4" x="1508" y="250.9883"/><rect fill="#F1F1F1" height="2" style="stroke:#181818;stroke-width:0.5;" width="4" x="1508" y="254.9883"/><text fill="#000000" font-family="sans-serif" font-size="14" lengthAdjust="spacing" textLength="24" x="1481" y="277.5234">ETL</text></g><!--entity redis_etl_service_ugc--><g id="elem_redis_etl_service_ugc"><path d="M1469.5,519.9883 C1469.5,509.9883 1498,509.9883 1498,509.9883 C1498,509.9883 1526.5,509.9883 1526.5,519.9883 L1526.5,545.4766 C1526.5,555.4766 1498,555.4766 1498,555.4766 C1498,555.4766 1469.5,555.4766 1469.5,545.4766 L1469.5,519.9883 " fill="#F1F1F1" style="stroke:#181818;stroke-width:0.5;"/><path d="M1469.5,519.9883 C1469.5,529.9883 1498,529.9883 1498,529.9883 C1498,529.9883 1526.5,529.9883 1526.5,519.9883 " fill="none" style="stroke:#181818;stroke-width:0.5;"/><text fill="#000000" font-family="sans-serif" font-size="14" lengthAdjust="spacing" textLength="37" x="1479.5" y="547.5234">Redis</text></g><!--entity User--><g id="elem_User"><ellipse cx="844" cy="51.4883" fill="#F1F1F1" rx="8" ry="8" style="stroke:#181818;stroke-width:0.5;"/><path d="M844,59.4883 L844,86.4883 M831,67.4883 L857,67.4883 M844,86.4883 L831,101.4883 M844,86.4883 L857,101.4883 " fill="none" style="stroke:#181818;stroke-width:0.5;"/><text fill="#000000" font-family="sans-serif" font-size="14" lengthAdjust="spacing" textLength="31" x="828.5" y="116.5234">User</text></g><!--entity Admin--><g id="elem_Admin"><ellipse cx="784" cy="237.4883" fill="#F1F1F1" rx="8" ry="8" style="stroke:#181818;stroke-width:0.5;"/><path d="M784,245.4883 L784,272.4883 M771,253.4883 L797,253.4883 M784,272.4883 L771,287.4883 M784,272.4883 L797,287.4883 " fill="none" style="stroke:#181818;stroke-width:0.5;"/><text fill="#000000" font-family="sans-serif" font-size="14" lengthAdjust="spacing" textLength="45" x="761.5" y="302.5234">Admin</text></g><!--entity Analyst--><g id="elem_Analyst"><ellipse cx="920" cy="51.4883" fill="#F1F1F1" rx="8" ry="8" style="stroke:#181818;stroke-width:0.5;"/><path d="M920,59.4883 L920,86.4883 M907,67.4883 L933,67.4883 M920,86.4883 L907,101.4883 M920,86.4883 L933,101.4883 " fill="none" style="stroke:#181818;stroke-width:0.5;"/><text fill="#000000" font-family="sans-serif" font-size="14" lengthAdjust="spacing" textLength="50" x="895" y="116.5234">Analyst</text></g><!--entity PostgreSQL--><g id="elem_PostgreSQL"><path d="M406,1222.9883 C406,1212.9883 455,1212.9883 455,1212.9883 C455,1212.9883 504,1212.9883 504,1222.9883 L504,1248.4766 C504,1258.4766 455,1258.4766 455,1258.4766 C455,1258.4766 406,1258.4766 406,1248.4766 L406,1222.9883 " fill="#F1F1F1" style="stroke:#181818;stroke-width:0.5;"/><path d="M406,1222.9883 C406,1232.9883 455,1232.9883 455,1232.9883 C455,1232.9883 504,1232.9883 504,1222.9883 " fill="none" style="stroke:#181818;stroke-width:0.5;"/><text fill="#000000" font-family="sans-serif" font-size="14" lengthAdjust="spacing" textLength="78" x="416" y="1250.5234">PostgreSQL</text></g><!--entity elasticsearch_data_service--><g id="elem_elasticsearch_data_service"><path d="M6,1391.4883 C6,1381.4883 60,1381.4883 60,1381.4883 C60,1381.4883 114,1381.4883 114,1391.4883 L114,1416.9766 C114,1426.9766 60,1426.9766 60,1426.9766 C60,1426.9766 6,1426.9766 6,1416.9766 L6,1391.4883 " fill="#F1F1F1" style="stroke:#181818;stroke-width:0.5;"/><path d="M6,1391.4883 C6,1401.4883 60,1401.4883 60,1401.4883 C60,1401.4883 114,1401.4883 114,1391.4883 " fill="none" style="stroke:#181818;stroke-width:0.5;"/><text fill="#000000" font-family="sans-serif" font-size="14" lengthAdjust="spacing" textLength="88" x="16" y="1419.0234">Elasticsearch</text></g><!--link Admin to nginx_general_balancer--><g id="link_Admin_nginx_general_balancer"><path d="M806.97,266.9883 C816.26,266.9883 825.54,266.9883 834.83,266.9883 " fill="none" id="Admin-to-nginx_general_balancer" style="stroke:#181818;stroke-width:1.0;"/><polygon fill="#181818" points="839.75,266.9883,830.75,262.9883,834.75,266.9883,830.75,270.9883,839.75,266.9883" style="stroke:#181818;stroke-width:1.0;"/></g><!--link User to nginx_general_balancer--><g id="link_User_nginx_general_balancer"><path d="M851.69,119.2283 C858.91,154.1683 869.55,205.6983 876.11,237.4883 " fill="none" id="User-to-nginx_general_balancer" style="stroke:#181818;stroke-width:1.0;"/><polygon fill="#181818" points="877.06,242.0883,879.1796,232.4702,876.0602,237.1893,871.3411,234.0699,877.06,242.0883" style="stroke:#181818;stroke-width:1.0;"/></g><!--link Analyst to nginx_general_balancer--><g id="link_Analyst_nginx_general_balancer"><path d="M912.31,119.2283 C905.09,154.1683 894.45,205.6983 887.89,237.4883 " fill="none" id="Analyst-to-nginx_general_balancer" style="stroke:#181818;stroke-width:1.0;"/><polygon fill="#181818" points="886.94,242.0883,892.6589,234.0699,887.9398,237.1893,884.8204,232.4702,886.94,242.0883" style="stroke:#181818;stroke-width:1.0;"/></g><!--link nginx_general_balancer to nginx_admin_panel--><g id="link_nginx_general_balancer_nginx_admin_panel"><path d="M888.22,290.4583 C901.48,338.2883 932.47,450.1483 947.09,502.9383 " fill="none" id="nginx_general_balancer-to-nginx_admin_panel" style="stroke:#181818;stroke-width:1.0;"/><polygon fill="#181818" points="948.39,507.6183,949.8517,497.8785,947.0599,502.7984,942.1399,500.0067,948.39,507.6183" style="stroke:#181818;stroke-width:1.0;"/></g><!--link nginx_admin_panel to app_serv_admin_panel--><g id="link_nginx_admin_panel_app_serv_admin_panel"><path d="M958.04,555.8183 C961.55,581.6483 967.35,624.2383 971.17,652.3183 " fill="none" id="nginx_admin_panel-to-app_serv_admin_panel" style="stroke:#181818;stroke-width:1.0;"/><polygon fill="#181818" points="971.8,656.9383,974.5558,647.4828,971.1289,651.9835,966.6282,648.5566,971.8,656.9383" style="stroke:#181818;stroke-width:1.0;"/></g><!--reverse link app_serv_admin_panel to django_admin_panel--><g id="link_app_serv_admin_panel_django_admin_panel"><path d="M970.23,711.3483 C966.69,732.7383 961.94,761.4783 958.7,781.1283 " fill="none" id="app_serv_admin_panel-backto-django_admin_panel" style="stroke:#181818;stroke-width:1.0;"/><polygon fill="#181818" points="971.04,706.4583,965.6264,714.6859,970.225,711.3914,973.5194,715.9899,971.04,706.4583" style="stroke:#181818;stroke-width:1.0;"/></g><!--reverse link django_admin_panel to PostgreSQL--><g id="link_django_admin_panel_PostgreSQL"><path d="M922.57,831.6483 C849.84,890.5683 668.69,1038.7083 523,1169.4883 C507.32,1183.5583 490.18,1199.9583 477.03,1212.7583 " fill="none" id="django_admin_panel-backto-PostgreSQL" style="stroke:#181818;stroke-width:1.0;"/><polygon fill="#181818" points="926.02,828.8483,916.5126,831.4192,922.1394,832.0012,921.5573,837.6281,926.02,828.8483" style="stroke:#181818;stroke-width:1.0;"/></g><!--link PostgreSQL to etl_service_movie--><g id="link_PostgreSQL_etl_service_movie"><path d="M510.83,1235.4883 C518.1,1235.4883 525.36,1235.4883 532.63,1235.4883 " fill="none" id="PostgreSQL-etl_service_movie" style="stroke:#181818;stroke-width:1.0;"/><polygon fill="#181818" points="505.9,1235.4883,514.9,1239.4883,510.9,1235.4883,514.9,1231.4883,505.9,1235.4883" style="stroke:#181818;stroke-width:1.0;"/><polygon fill="#181818" points="537.22,1235.4883,528.22,1231.4883,532.22,1235.4883,528.22,1239.4883,537.22,1235.4883" style="stroke:#181818;stroke-width:1.0;"/></g><!--link etl_service_movie to elasticsearch_data_service--><g id="link_etl_service_movie_elasticsearch_data_service"><path d="M532.59,1254.2483 C529.03,1255.7383 525.46,1257.1783 522,1258.4883 C380.62,1312.1183 209.75,1361.7483 120.68,1386.4983 " fill="none" id="etl_service_movie-elasticsearch_data_service" style="stroke:#181818;stroke-width:1.0;"/><polygon fill="#181818" points="537.15,1252.3083,527.3024,1252.1511,532.5491,1254.2658,530.4344,1259.5125,537.15,1252.3083" style="stroke:#181818;stroke-width:1.0;"/><polygon fill="#181818" points="115.87,1387.8383,125.6127,1389.2806,120.6872,1386.4986,123.4692,1381.5731,115.87,1387.8383" style="stroke:#181818;stroke-width:1.0;"/></g><!--link etl_service_movie to redis_etl_service_movie--><g id="link_etl_service_movie_redis_etl_service_movie"><path d="M571,1265.2483 C571,1296.0083 571,1344.4483 571,1374.9383 " fill="none" id="etl_service_movie-redis_etl_service_movie" style="stroke:#181818;stroke-width:1.0;stroke-dasharray:7.0,7.0;"/><polygon fill="#181818" points="571,1260.4583,567,1269.4583,571,1265.4583,575,1269.4583,571,1260.4583" style="stroke:#181818;stroke-width:1.0;"/><polygon fill="#181818" points="571,1379.6383,575,1370.6383,571,1374.6383,567,1370.6383,571,1379.6383" style="stroke:#181818;stroke-width:1.0;"/></g><!--link nginx_general_balancer to nginx_api_service--><g id="link_nginx_general_balancer_nginx_api_service"><path d="M859.63,290.4383 C849.56,299.2183 837.02,308.4883 824,313.9883 C706.34,363.7083 254,260.2583 254,387.9883 C254,387.9883 254,387.9883 254,805.4883 C254,851.3883 254,904.6983 254,936.7283 " fill="none" id="nginx_general_balancer-to-nginx_api_service" style="stroke:#181818;stroke-width:1.0;"/><polygon fill="#181818" points="254,941.7183,258,932.7183,254,936.7183,250,932.7183,254,941.7183" style="stroke:#181818;stroke-width:1.0;"/></g><!--link nginx_api_service to app_serv_api_service--><g id="link_nginx_api_service_app_serv_api_service"><path d="M254,989.9683 C254,1009.6583 254,1038.3983 254,1059.7583 " fill="none" id="nginx_api_service-to-app_serv_api_service" style="stroke:#181818;stroke-width:1.0;"/><polygon fill="#181818" points="254,1064.6183,258,1055.6183,254,1059.6183,250,1055.6183,254,1064.6183" style="stroke:#181818;stroke-width:1.0;"/></g><!--link fastapi_api_service to app_serv_api_service--><g id="link_fastapi_api_service_app_serv_api_service"><path d="M151.44,989.9283 C162.45,998.8783 175.02,1009.4283 186,1019.4883 C200.58,1032.8383 216.11,1048.4783 228.64,1061.4883 " fill="none" id="fastapi_api_service-to-app_serv_api_service" style="stroke:#181818;stroke-width:1.0;"/><polygon fill="#181818" points="232.07,1065.0683,228.7212,1055.8062,228.6067,1061.4619,222.951,1061.3474,232.07,1065.0683" style="stroke:#181818;stroke-width:1.0;"/></g><!--reverse link fastapi_api_service to redis_api_service--><g id="link_fastapi_api_service_redis_api_service"><path d="M119.18,996.3883 C116.33,1017.9283 112.5,1046.8883 109.9,1066.5383 " fill="none" id="fastapi_api_service-backto-redis_api_service" style="stroke:#181818;stroke-width:1.0;"/><polygon fill="#181818" points="119.83,991.4683,114.682,999.8646,119.1729,996.4249,122.6126,1000.9159,119.83,991.4683" style="stroke:#181818;stroke-width:1.0;"/><text fill="#000000" font-family="sans-serif" font-size="13" lengthAdjust="spacing" textLength="60" x="117" y="1033.0566">cash data</text></g><!--reverse link fastapi_api_service to elasticsearch_data_service--><g id="link_fastapi_api_service_elasticsearch_data_service"><path d="M83.69,993.9083 C56.43,1015.6883 25,1049.2983 25,1088.4883 C25,1088.4883 25,1088.4883 25,1320.4883 C25,1342.4283 35.62,1365.2283 45.16,1381.2783 " fill="none" id="fastapi_api_service-backto-elasticsearch_data_service" style="stroke:#181818;stroke-width:1.0;"/><polygon fill="#181818" points="87.53,990.9083,77.9772,993.305,83.5925,993.9898,82.9077,999.6051,87.53,990.9083" style="stroke:#181818;stroke-width:1.0;"/></g><!--link nginx_general_balancer to nginx_auth_service--><g id="link_nginx_general_balancer_nginx_auth_service"><path d="M876.92,290.4583 C863.96,347.3283 828.2,501.4383 793,628.4883 C790.89,636.0983 788.45,644.2783 786.13,651.8583 " fill="none" id="nginx_general_balancer-to-nginx_auth_service" style="stroke:#181818;stroke-width:1.0;"/><polygon fill="#181818" points="784.66,656.5983,791.1346,649.1767,786.1334,651.8203,783.4898,646.8192,784.66,656.5983" style="stroke:#181818;stroke-width:1.0;"/></g><!--link nginx_auth_service to app_serv_auth_service--><g id="link_nginx_auth_service_app_serv_auth_service"><path d="M764.18,704.9683 C752.81,724.9183 736.14,754.1383 723.91,775.5883 " fill="none" id="nginx_auth_service-to-app_serv_auth_service" style="stroke:#181818;stroke-width:1.0;"/><polygon fill="#181818" points="721.5,779.8183,729.4279,773.9746,723.973,775.4727,722.4749,770.0178,721.5,779.8183" style="stroke:#181818;stroke-width:1.0;"/></g><!--link flask_auth_service to app_serv_auth_service--><g id="link_flask_auth_service_app_serv_auth_service"><path d="M672.17,704.9683 C679.37,724.7483 689.88,753.6483 697.65,775.0383 " fill="none" id="flask_auth_service-to-app_serv_auth_service" style="stroke:#181818;stroke-width:1.0;"/><polygon fill="#181818" points="699.35,779.7083,700.0503,769.8844,697.6493,775.0064,692.5273,772.6054,699.35,779.7083" style="stroke:#181818;stroke-width:1.0;"/></g><!--link posgresql_auth_service to flask_auth_service--><g id="link_posgresql_auth_service_flask_auth_service"><path d="M722.8,555.2783 C715.31,574.7083 703.66,603.8283 692,628.4883 C688.19,636.5483 683.74,645.1283 679.52,652.9483 " fill="none" id="posgresql_auth_service-to-flask_auth_service" style="stroke:#181818;stroke-width:1.0;"/><polygon fill="#181818" points="677.37,656.8983,685.1762,650.8931,679.7533,652.5028,678.1435,647.0798,677.37,656.8983" style="stroke:#181818;stroke-width:1.0;"/><text fill="#000000" font-family="sans-serif" font-size="13" lengthAdjust="spacing" textLength="85" x="699" y="625.0566">storage users</text></g><!--link redis_auth_service to flask_auth_service--><g id="link_redis_auth_service_flask_auth_service"><path d="M491.17,555.3383 C482.56,576.1683 474.31,607.4283 490,628.4883 C505.56,649.3783 573.52,664.9683 619.75,673.3883 " fill="none" id="redis_auth_service-to-flask_auth_service" style="stroke:#181818;stroke-width:1.0;"/><polygon fill="#181818" points="624.64,674.2683,616.4739,668.7624,619.7164,673.3977,615.081,676.6402,624.64,674.2683" style="stroke:#181818;stroke-width:1.0;"/><text fill="#000000" font-family="sans-serif" font-size="13" lengthAdjust="spacing" textLength="192" x="491" y="625.0566">storage refresh, invalid tokens</text></g><!--reverse link AuthService to ApiService--><g id="link_AuthService_ApiService"><path d="M429.9797,544.1819 C429.7793,544.4563 429.5756,544.7356 429.3688,545.0197 C427.7141,547.2925 425.8575,549.8735 423.8311,552.7375 C415.7253,564.1936 404.9019,580.1777 393.4163,599.0745 C370.445,636.8683 344.825,686.3133 333,734.4883 C331.2,741.8283 332.41,743.9583 333,751.4883 C337.68,811.1483 346.39,825.1283 354,884.4883 C354.5575,888.8333 355.0973,893.3138 355.6156,897.8332 C355.6804,898.3981 355.7449,898.9636 355.809,899.5296 C355.841,899.8126 355.873,900.0956 355.9049,900.3788 " fill="none" id="AuthService-backto-ApiService" style="stroke:#181818;stroke-width:1.0;"/><polygon fill="#181818" points="429.9797,544.1819,421.441,549.09,427.0304,548.2194,427.901,553.8089,429.9797,544.1819" style="stroke:#181818;stroke-width:1.0;"/><text fill="#000000" font-family="sans-serif" font-size="13" lengthAdjust="spacing" textLength="111" x="334" y="748.0566">check permission</text></g><!--link nginx_general_balancer to nginx_ugc--><g id="link_nginx_general_balancer_nginx_ugc"><path d="M922.72,285.8283 C972.54,307.6383 1056.68,344.4883 1109.13,367.4583 " fill="none" id="nginx_general_balancer-to-nginx_ugc" style="stroke:#181818;stroke-width:1.0;"/><polygon fill="#181818" points="1113.67,369.4483,1107.0386,362.1665,1109.0922,367.4375,1103.8212,369.4911,1113.67,369.4483" style="stroke:#181818;stroke-width:1.0;"/></g><!--link nginx_ugc to app_serv_oltp--><g id="link_nginx_ugc_app_serv_oltp"><path d="M1180.88,412.4083 C1208.78,437.5583 1254,478.3183 1283.62,505.0083 " fill="none" id="nginx_ugc-to-app_serv_oltp" style="stroke:#181818;stroke-width:1.0;"/><polygon fill="#181818" points="1287.11,508.1583,1283.0962,499.1644,1283.3935,504.8135,1277.7445,505.1108,1287.11,508.1583" style="stroke:#181818;stroke-width:1.0;"/></g><!--link fastapi_api_oltp to app_serv_oltp--><g id="link_fastapi_api_oltp_app_serv_oltp"><path d="M1330.67,412.4083 C1327.03,436.9383 1321.19,476.3183 1317.23,503.0083 " fill="none" id="fastapi_api_oltp-to-app_serv_oltp" style="stroke:#181818;stroke-width:1.0;"/><polygon fill="#181818" points="1316.53,507.6783,1321.8232,499.3727,1317.2731,502.7338,1313.912,498.1838,1316.53,507.6783" style="stroke:#181818;stroke-width:1.0;"/></g><!--link kafka_auth_service_oltp to fastapi_api_oltp--><g id="link_kafka_auth_service_oltp_fastapi_api_oltp"><path d="M1358.57,289.7183 C1353.68,309.2683 1346.47,338.1183 1341.12,359.5083 " fill="none" id="kafka_auth_service_oltp-to-fastapi_api_oltp" style="stroke:#181818;stroke-width:1.0;"/><polygon fill="#181818" points="1339.96,364.1383,1346.0288,356.3814,1341.176,359.2884,1338.269,354.4357,1339.96,364.1383" style="stroke:#181818;stroke-width:1.0;"/></g><!--link etl_service_ugc to redis_etl_service_ugc--><g id="link_etl_service_ugc_redis_etl_service_ugc"><path d="M1498,296.9583 C1498,347.9283 1498,453.0183 1498,503.3783 " fill="none" id="etl_service_ugc-redis_etl_service_ugc" style="stroke:#181818;stroke-width:1.0;stroke-dasharray:7.0,7.0;"/><polygon fill="#181818" points="1498,291.9683,1494,300.9683,1498,296.9683,1502,300.9683,1498,291.9683" style="stroke:#181818;stroke-width:1.0;"/><polygon fill="#181818" points="1498,508.3083,1502,499.3083,1498,503.3083,1494,499.3083,1498,508.3083" style="stroke:#181818;stroke-width:1.0;"/></g><!--link etl_service_ugc to kafka_auth_service_oltp--><g id="link_etl_service_ugc_kafka_auth_service_oltp"><path d="M1459.26,266.9883 C1439.45,266.9883 1419.63,266.9883 1399.82,266.9883 " fill="none" id="etl_service_ugc-kafka_auth_service_oltp" style="stroke:#181818;stroke-width:1.0;stroke-dasharray:7.0,7.0;"/><polygon fill="#181818" points="1464.18,266.9883,1455.18,262.9883,1459.18,266.9883,1455.18,270.9883,1464.18,266.9883" style="stroke:#181818;stroke-width:1.0;"/><polygon fill="#181818" points="1394.83,266.9883,1403.83,270.9883,1399.83,266.9883,1403.83,262.9883,1394.83,266.9883" style="stroke:#181818;stroke-width:1.0;"/></g><!--link etl_service_ugc to ch_olap--><g id="link_etl_service_ugc_ch_olap"><path d="M1536.71,266.9883 C1555.27,266.9883 1573.83,266.9883 1592.39,266.9883 " fill="none" id="etl_service_ugc-ch_olap" style="stroke:#181818;stroke-width:1.0;stroke-dasharray:7.0,7.0;"/><polygon fill="#181818" points="1531.82,266.9883,1540.82,270.9883,1536.82,266.9883,1540.82,262.9883,1531.82,266.9883" style="stroke:#181818;stroke-width:1.0;"/><polygon fill="#181818" points="1597.17,266.9883,1588.17,262.9883,1592.17,266.9883,1588.17,270.9883,1597.17,266.9883" style="stroke:#181818;stroke-width:1.0;"/></g><!--SRC=[dPRFSjem4CRlUWezGCcXnqo66KBpXsaIQ49wwNGymXP6jP1KIMIQwV3kNGbZX2MRK4wBzFlMkulq6LCneOWcQvpBjPA22ljYtpd5cpN_Z4opko1vLMgv4SLOSgdnutG- -JwQJwPF25bcGV1Zz3o-_tc9vrDyVOCGoIrWhuRgEXmLQoRsiI3ytLY4q1AIKtn71TM4NnDEH4ur_eimV9gAy5F9n1zC31OkoCeTdYrg7cttYVn3PaHGVYe7SMIc7De2HqfnbXFBfCYW_3Ue1rH4AV-jH_Zb5n6bT73XeoCKIaG5iMH13CKpQMofwSktXttXD_E75yZESleetnYDgeTzbvXQxgi0Bbixq6DDtcTQCECuxO8ifhT14JUS6CjoGudELpvvk90vRgzkngjONUN9yIhMYCyRRwVm5geRpIQENaBem3RSDOYGEvoLZLrzj1j0_xETRkKjZBlotRWW9XEdnT5A6lXYVlCUHRlz46pwVxqRx_hkR7jJvcvVmTqd9SNJX_cidjHPCv3SgeIgu_SyefkElf9bHHnQkU2eeqQnFIvs51Pxo3I6KgjxkO4Gqi51bvpKyb1_k93DdDeD9EvaFR7M8tkkPItOUdz0thxmOA07mowhSuuAHET-RQrz24glWwJHXCuLhVZSIJzCBUAhmI1bYF6I8u4DpH6XuF1V-Rd4fXQj-4J3FZzBIIv0qkMRFICxp2mmcMYbDRC0JNZPUR2RRsHp-1BdnApy6UnKzHd-HneERILUQdKHmh7ZzS1fm_E2H9vBRE0VXhl1SCErGR43dbPgkeG7hZvX9ju8PmMsigB2eF2DiJkhmGiH1hwYUOKLrMjc37XXpn27WSCsqV4ClAkrZJ61T1ZYhikshxQif_FKkxeYzcBOwRufjhRMVm00]--></g></svg>